<?xml version="1.0" encoding="UTF-8"?>
<svg version="1.1" xmlns="http://www.w3.org/2000/svg" width="4000" height="662">
<path d="M0 0 C8.93325852 5.56192444 14.93149791 12.57069013 17.70703125 22.7578125 C19.38329073 30.96905457 18.74509988 39.97832004 14.10864258 47.16040039 C10.02149592 52.8530353 5.1805637 57.69554772 0.18359375 62.5859375 C-0.60595703 63.36646484 -1.39550781 64.14699219 -2.20898438 64.95117188 C-3.72403175 66.44843999 -5.2410186 67.94374901 -6.76025391 69.43676758 C-8.39956098 71.04977668 -10.03171132 72.6690283 -11.65625 74.296875 C-13.17765054 75.82110869 -14.71193583 77.33251635 -16.25390625 78.8359375 C-18.8275374 81.396488 -18.8275374 81.396488 -21.19140625 84.3984375 C-23.75390625 87.3984375 -23.75390625 87.3984375 -26.69140625 89.8359375 C-29.71086184 92.36242075 -32.02298855 94.97424288 -34.45703125 98.04296875 C-34.885 98.49027344 -35.31296875 98.93757813 -35.75390625 99.3984375 C-36.41390625 99.3984375 -37.07390625 99.3984375 -37.75390625 99.3984375 C-37.75390625 100.0584375 -37.75390625 100.7184375 -37.75390625 101.3984375 C-40.12890625 104.0234375 -40.12890625 104.0234375 -42.75390625 106.3984375 C-43.41390625 106.3984375 -44.07390625 106.3984375 -44.75390625 106.3984375 C-44.75390625 107.0584375 -44.75390625 107.7184375 -44.75390625 108.3984375 C-47.12890625 111.0234375 -47.12890625 111.0234375 -49.75390625 113.3984375 C-50.41390625 113.3984375 -51.07390625 113.3984375 -51.75390625 113.3984375 C-51.75390625 114.0584375 -51.75390625 114.7184375 -51.75390625 115.3984375 C-54.12890625 118.0234375 -54.12890625 118.0234375 -56.75390625 120.3984375 C-57.41390625 120.3984375 -58.07390625 120.3984375 -58.75390625 120.3984375 C-58.75390625 121.0584375 -58.75390625 121.7184375 -58.75390625 122.3984375 C-61.12890625 125.0234375 -61.12890625 125.0234375 -63.75390625 127.3984375 C-64.41390625 127.3984375 -65.07390625 127.3984375 -65.75390625 127.3984375 C-65.75390625 128.0584375 -65.75390625 128.7184375 -65.75390625 129.3984375 C-67.12890625 131.0234375 -67.12890625 131.0234375 -68.75390625 132.3984375 C-69.41390625 132.3984375 -70.07390625 132.3984375 -70.75390625 132.3984375 C-70.75390625 133.0584375 -70.75390625 133.7184375 -70.75390625 134.3984375 C-71.41390625 134.3984375 -72.07390625 134.3984375 -72.75390625 134.3984375 C-72.75390625 135.0584375 -72.75390625 135.7184375 -72.75390625 136.3984375 C-74.12890625 138.0234375 -74.12890625 138.0234375 -75.75390625 139.3984375 C-76.41390625 139.3984375 -77.07390625 139.3984375 -77.75390625 139.3984375 C-77.75390625 140.0584375 -77.75390625 140.7184375 -77.75390625 141.3984375 C-78.41390625 141.3984375 -79.07390625 141.3984375 -79.75390625 141.3984375 C-79.75390625 142.0584375 -79.75390625 142.7184375 -79.75390625 143.3984375 C-81.12890625 145.0234375 -81.12890625 145.0234375 -82.75390625 146.3984375 C-83.41390625 146.3984375 -84.07390625 146.3984375 -84.75390625 146.3984375 C-84.75390625 147.0584375 -84.75390625 147.7184375 -84.75390625 148.3984375 C-85.41390625 148.3984375 -86.07390625 148.3984375 -86.75390625 148.3984375 C-86.75390625 149.0584375 -86.75390625 149.7184375 -86.75390625 150.3984375 C-88.12890625 152.0234375 -88.12890625 152.0234375 -89.75390625 153.3984375 C-90.41390625 153.3984375 -91.07390625 153.3984375 -91.75390625 153.3984375 C-91.75390625 154.0584375 -91.75390625 154.7184375 -91.75390625 155.3984375 C-92.41390625 155.3984375 -93.07390625 155.3984375 -93.75390625 155.3984375 C-94.08390625 156.3884375 -94.41390625 157.3784375 -94.75390625 158.3984375 C-95.41390625 158.3984375 -96.07390625 158.3984375 -96.75390625 158.3984375 C-96.75390625 159.0584375 -96.75390625 159.7184375 -96.75390625 160.3984375 C-97.41390625 160.3984375 -98.07390625 160.3984375 -98.75390625 160.3984375 C-98.75390625 161.0584375 -98.75390625 161.7184375 -98.75390625 162.3984375 C-99.41390625 162.3984375 -100.07390625 162.3984375 -100.75390625 162.3984375 C-101.08390625 163.3884375 -101.41390625 164.3784375 -101.75390625 165.3984375 C-102.41390625 165.3984375 -103.07390625 165.3984375 -103.75390625 165.3984375 C-103.75390625 166.0584375 -103.75390625 166.7184375 -103.75390625 167.3984375 C-104.41390625 167.3984375 -105.07390625 167.3984375 -105.75390625 167.3984375 C-105.75390625 168.0584375 -105.75390625 168.7184375 -105.75390625 169.3984375 C-106.41390625 169.3984375 -107.07390625 169.3984375 -107.75390625 169.3984375 C-108.08390625 170.3884375 -108.41390625 171.3784375 -108.75390625 172.3984375 C-109.41390625 172.3984375 -110.07390625 172.3984375 -110.75390625 172.3984375 C-110.75390625 173.0584375 -110.75390625 173.7184375 -110.75390625 174.3984375 C-111.41390625 174.3984375 -112.07390625 174.3984375 -112.75390625 174.3984375 C-112.75390625 175.0584375 -112.75390625 175.7184375 -112.75390625 176.3984375 C-113.41390625 176.3984375 -114.07390625 176.3984375 -114.75390625 176.3984375 C-115.08390625 177.3884375 -115.41390625 178.3784375 -115.75390625 179.3984375 C-116.41390625 179.3984375 -117.07390625 179.3984375 -117.75390625 179.3984375 C-117.75390625 180.0584375 -117.75390625 180.7184375 -117.75390625 181.3984375 C-118.41390625 181.3984375 -119.07390625 181.3984375 -119.75390625 181.3984375 C-119.75390625 182.0584375 -119.75390625 182.7184375 -119.75390625 183.3984375 C-120.41390625 183.3984375 -121.07390625 183.3984375 -121.75390625 183.3984375 C-122.08390625 184.3884375 -122.41390625 185.3784375 -122.75390625 186.3984375 C-123.41390625 186.3984375 -124.07390625 186.3984375 -124.75390625 186.3984375 C-124.75390625 187.0584375 -124.75390625 187.7184375 -124.75390625 188.3984375 C-125.41390625 188.3984375 -126.07390625 188.3984375 -126.75390625 188.3984375 C-127.02203125 189.0378125 -127.29015625 189.6771875 -127.56640625 190.3359375 C-128.75390625 192.3984375 -128.75390625 192.3984375 -131.75390625 193.3984375 C-131.75390625 194.0584375 -131.75390625 194.7184375 -131.75390625 195.3984375 C-132.41390625 195.3984375 -133.07390625 195.3984375 -133.75390625 195.3984375 C-134.02203125 195.9965625 -134.29015625 196.5946875 -134.56640625 197.2109375 C-135.75308031 199.39691604 -136.84989738 200.81176344 -138.75390625 202.3984375 C-139.41390625 202.3984375 -140.07390625 202.3984375 -140.75390625 202.3984375 C-141.02203125 202.9965625 -141.29015625 203.5946875 -141.56640625 204.2109375 C-142.75308031 206.39691604 -143.84989738 207.81176344 -145.75390625 209.3984375 C-146.41390625 209.3984375 -147.07390625 209.3984375 -147.75390625 209.3984375 C-147.98078125 209.9553125 -148.20765625 210.5121875 -148.44140625 211.0859375 C-150.12940661 214.06003338 -152.22067142 216.11852615 -154.75390625 218.3984375 C-155.41390625 218.3984375 -156.07390625 218.3984375 -156.75390625 218.3984375 C-157.08390625 219.3884375 -157.41390625 220.3784375 -157.75390625 221.3984375 C-158.41390625 221.3984375 -159.07390625 221.3984375 -159.75390625 221.3984375 C-160.41390625 222.7184375 -161.07390625 224.0384375 -161.75390625 225.3984375 C-162.41390625 225.3984375 -163.07390625 225.3984375 -163.75390625 225.3984375 C-164.08390625 226.3884375 -164.41390625 227.3784375 -164.75390625 228.3984375 C-166.69140625 230.5859375 -166.69140625 230.5859375 -168.75390625 232.3984375 C-169.41390625 232.3984375 -170.07390625 232.3984375 -170.75390625 232.3984375 C-171.08390625 233.3884375 -171.41390625 234.3784375 -171.75390625 235.3984375 C-172.45515625 235.9553125 -173.15640625 236.5121875 -173.87890625 237.0859375 C-176.97203265 239.573887 -179.37191796 242.25709199 -181.93359375 245.2734375 C-183.09741355 246.63205975 -184.2881844 247.96833419 -185.51171875 249.2734375 C-200.25432938 265.13992428 -205.47457851 285.48454945 -204.99609375 306.62109375 C-204.32699202 323.23932819 -198.57940968 338.39372541 -188.2578125 351.359375 C-186.75390625 353.3984375 -186.75390625 353.3984375 -186.75390625 355.3984375 C-186.09390625 355.3984375 -185.43390625 355.3984375 -184.75390625 355.3984375 C-183.06658348 357.38104176 -181.40024568 359.3816717 -179.75390625 361.3984375 C-179.09390625 361.7284375 -178.43390625 362.0584375 -177.75390625 362.3984375 C-177.75390625 363.0584375 -177.75390625 363.7184375 -177.75390625 364.3984375 C-176.92632812 364.78902344 -176.92632812 364.78902344 -176.08203125 365.1875 C-173.43790925 366.56279835 -170.99783162 368.14169776 -168.50390625 369.7734375 C-149.68811867 381.76291692 -127.90055572 385.60571121 -105.87988281 381.37231445 C-91.22116539 378.00594312 -76.30727258 370.75501639 -66.98046875 358.71875 C-66.57570312 358.28304688 -66.1709375 357.84734375 -65.75390625 357.3984375 C-65.09390625 357.3984375 -64.43390625 357.3984375 -63.75390625 357.3984375 C-63.75390625 356.7384375 -63.75390625 356.0784375 -63.75390625 355.3984375 C-62.37890625 353.7734375 -62.37890625 353.7734375 -60.75390625 352.3984375 C-60.09390625 352.3984375 -59.43390625 352.3984375 -58.75390625 352.3984375 C-58.75390625 351.7384375 -58.75390625 351.0784375 -58.75390625 350.3984375 C-58.09390625 350.3984375 -57.43390625 350.3984375 -56.75390625 350.3984375 C-56.75390625 349.7384375 -56.75390625 349.0784375 -56.75390625 348.3984375 C-54.37890625 345.7734375 -54.37890625 345.7734375 -51.75390625 343.3984375 C-51.09390625 343.3984375 -50.43390625 343.3984375 -49.75390625 343.3984375 C-49.75390625 342.7384375 -49.75390625 342.0784375 -49.75390625 341.3984375 C-47.37890625 338.7734375 -47.37890625 338.7734375 -44.75390625 336.3984375 C-44.09390625 336.3984375 -43.43390625 336.3984375 -42.75390625 336.3984375 C-42.75390625 335.7384375 -42.75390625 335.0784375 -42.75390625 334.3984375 C-41.37890625 332.7734375 -41.37890625 332.7734375 -39.75390625 331.3984375 C-39.09390625 331.3984375 -38.43390625 331.3984375 -37.75390625 331.3984375 C-37.75390625 330.7384375 -37.75390625 330.0784375 -37.75390625 329.3984375 C-37.09390625 329.3984375 -36.43390625 329.3984375 -35.75390625 329.3984375 C-35.42390625 328.4084375 -35.09390625 327.4184375 -34.75390625 326.3984375 C-34.09390625 326.3984375 -33.43390625 326.3984375 -32.75390625 326.3984375 C-32.75390625 325.7384375 -32.75390625 325.0784375 -32.75390625 324.3984375 C-32.09390625 324.3984375 -31.43390625 324.3984375 -30.75390625 324.3984375 C-30.75390625 323.7384375 -30.75390625 323.0784375 -30.75390625 322.3984375 C-30.09390625 322.3984375 -29.43390625 322.3984375 -28.75390625 322.3984375 C-28.42390625 321.4084375 -28.09390625 320.4184375 -27.75390625 319.3984375 C-27.09390625 319.3984375 -26.43390625 319.3984375 -25.75390625 319.3984375 C-25.75390625 318.7384375 -25.75390625 318.0784375 -25.75390625 317.3984375 C-25.09390625 317.3984375 -24.43390625 317.3984375 -23.75390625 317.3984375 C-23.75390625 316.7384375 -23.75390625 316.0784375 -23.75390625 315.3984375 C-23.09390625 315.3984375 -22.43390625 315.3984375 -21.75390625 315.3984375 C-21.42390625 314.4084375 -21.09390625 313.4184375 -20.75390625 312.3984375 C-20.09390625 312.3984375 -19.43390625 312.3984375 -18.75390625 312.3984375 C-18.75390625 311.7384375 -18.75390625 311.0784375 -18.75390625 310.3984375 C-18.09390625 310.3984375 -17.43390625 310.3984375 -16.75390625 310.3984375 C-16.75390625 309.7384375 -16.75390625 309.0784375 -16.75390625 308.3984375 C-16.09390625 308.3984375 -15.43390625 308.3984375 -14.75390625 308.3984375 C-14.42390625 307.4084375 -14.09390625 306.4184375 -13.75390625 305.3984375 C-11.81640625 303.2109375 -11.81640625 303.2109375 -9.75390625 301.3984375 C-9.09390625 301.3984375 -8.43390625 301.3984375 -7.75390625 301.3984375 C-7.75390625 300.7384375 -7.75390625 300.0784375 -7.75390625 299.3984375 C-6.37890625 297.7734375 -6.37890625 297.7734375 -4.75390625 296.3984375 C-4.09390625 296.3984375 -3.43390625 296.3984375 -2.75390625 296.3984375 C-2.48578125 295.8003125 -2.21765625 295.2021875 -1.94140625 294.5859375 C-0.75473219 292.39995896 0.34208488 290.98511156 2.24609375 289.3984375 C2.90609375 289.3984375 3.56609375 289.3984375 4.24609375 289.3984375 C4.24609375 288.7384375 4.24609375 288.0784375 4.24609375 287.3984375 C4.90609375 287.3984375 5.56609375 287.3984375 6.24609375 287.3984375 C6.24609375 286.7384375 6.24609375 286.0784375 6.24609375 285.3984375 C7.62109375 283.7734375 7.62109375 283.7734375 9.24609375 282.3984375 C9.90609375 282.3984375 10.56609375 282.3984375 11.24609375 282.3984375 C11.24609375 281.7384375 11.24609375 281.0784375 11.24609375 280.3984375 C11.90609375 280.3984375 12.56609375 280.3984375 13.24609375 280.3984375 C13.24609375 279.7384375 13.24609375 279.0784375 13.24609375 278.3984375 C14.68958102 277.18993653 16.13731583 275.98602969 17.609375 274.8125 C19.61467267 273.07999939 21.18456614 271.07120924 22.83203125 269.00390625 C25.09961391 266.4293856 27.7211442 264.28490751 30.32421875 262.05859375 C33.58893092 259.23846637 36.54057845 256.30877983 39.18359375 252.8984375 C41.15090331 250.51381985 43.24740834 248.71750739 45.66015625 246.80078125 C48.04636147 244.69081161 49.97374322 242.24449234 51.94921875 239.75390625 C52.3771875 239.30660156 52.80515625 238.85929688 53.24609375 238.3984375 C53.90609375 238.3984375 54.56609375 238.3984375 55.24609375 238.3984375 C55.24609375 237.7384375 55.24609375 237.0784375 55.24609375 236.3984375 C55.90609375 236.3984375 56.56609375 236.3984375 57.24609375 236.3984375 C57.24609375 235.7384375 57.24609375 235.0784375 57.24609375 234.3984375 C58.62109375 232.7734375 58.62109375 232.7734375 60.24609375 231.3984375 C60.90609375 231.3984375 61.56609375 231.3984375 62.24609375 231.3984375 C62.24609375 230.7384375 62.24609375 230.0784375 62.24609375 229.3984375 C62.90609375 229.3984375 63.56609375 229.3984375 64.24609375 229.3984375 C64.24609375 228.7384375 64.24609375 228.0784375 64.24609375 227.3984375 C65.62109375 225.7734375 65.62109375 225.7734375 67.24609375 224.3984375 C67.90609375 224.3984375 68.56609375 224.3984375 69.24609375 224.3984375 C69.24609375 223.7384375 69.24609375 223.0784375 69.24609375 222.3984375 C70.85546875 220.84765625 70.85546875 220.84765625 72.99609375 219.0859375 C76.16370724 216.41081515 78.6770234 213.65918064 81.24609375 210.3984375 C81.90609375 210.3984375 82.56609375 210.3984375 83.24609375 210.3984375 C83.24609375 209.7384375 83.24609375 209.0784375 83.24609375 208.3984375 C84.62109375 206.7734375 84.62109375 206.7734375 86.24609375 205.3984375 C86.90609375 205.3984375 87.56609375 205.3984375 88.24609375 205.3984375 C88.24609375 204.7384375 88.24609375 204.0784375 88.24609375 203.3984375 C88.90609375 203.3984375 89.56609375 203.3984375 90.24609375 203.3984375 C90.24609375 202.7384375 90.24609375 202.0784375 90.24609375 201.3984375 C92.62109375 198.7734375 92.62109375 198.7734375 95.24609375 196.3984375 C95.90609375 196.3984375 96.56609375 196.3984375 97.24609375 196.3984375 C97.24609375 195.7384375 97.24609375 195.0784375 97.24609375 194.3984375 C100.73639177 191.190443 104.51749424 188.32380148 108.24609375 185.3984375 C108.94734375 184.84414062 109.64859375 184.28984375 110.37109375 183.71875 C141.18432241 159.96688624 180.60560047 149.65334832 219.13330078 154.17016602 C248.57463671 158.15088112 275.9335816 169.61323255 298.24609375 189.3984375 C299.56480469 190.51992188 299.56480469 190.51992188 300.91015625 191.6640625 C305.58195808 195.6849941 305.58195808 195.6849941 307.24609375 197.3984375 C307.24609375 198.0584375 307.24609375 198.7184375 307.24609375 199.3984375 C307.90609375 199.3984375 308.56609375 199.3984375 309.24609375 199.3984375 C314.24609375 204.87462798 314.24609375 204.87462798 314.24609375 207.3984375 C314.90609375 207.3984375 315.56609375 207.3984375 316.24609375 207.3984375 C317.47949219 208.76855469 317.47949219 208.76855469 318.85546875 210.6953125 C319.35997559 211.40083252 319.86448242 212.10635254 320.38427734 212.83325195 C320.91617676 213.59726318 321.44807617 214.36127441 321.99609375 215.1484375 C322.53959473 215.92469482 323.0830957 216.70095215 323.64306641 217.50073242 C327.80932877 223.5525068 331.17716257 229.72443657 334.24609375 236.3984375 C335.28602827 238.37851485 336.32772441 240.35766791 337.37109375 242.3359375 C340.44718681 248.4961552 342.453426 254.76396621 344.24609375 261.3984375 C344.53484375 262.45675781 344.82359375 263.51507813 345.12109375 264.60546875 C347.41003603 273.35407026 348.40174737 281.67489283 348.4140625 290.69140625 C348.4173909 291.55929276 348.4207193 292.42717926 348.42414856 293.32136536 C348.4291839 295.14921545 348.43155794 296.97707462 348.43139648 298.80493164 C348.43357394 301.56086894 348.45174131 304.31639939 348.47070312 307.07226562 C348.51454352 320.25244622 347.4802935 332.552765 343.55859375 345.2109375 C343.29949219 346.05696533 343.04039062 346.90299316 342.7734375 347.7746582 C339.35461644 358.61211746 335.25377854 369.21538645 328.59375 378.50390625 C326.57465365 381.34234605 324.94715433 384.36082932 323.24609375 387.3984375 C322.58609375 388.3884375 321.92609375 389.3784375 321.24609375 390.3984375 C320.58609375 390.3984375 319.92609375 390.3984375 319.24609375 390.3984375 C319.00503906 391.1203125 318.76398437 391.8421875 318.515625 392.5859375 C317.05668036 395.81806101 315.35446934 397.80381486 312.93359375 400.3984375 C312.47645996 400.88900635 312.01932617 401.3795752 311.54833984 401.88500977 C303.75824377 410.14801454 295.62871288 418.0971701 287.56689453 426.09350586 C285.12088963 428.5227855 282.68260917 430.95964307 280.24609375 433.3984375 C266.24609375 447.3984375 266.24609375 447.3984375 263.62109375 449.9609375 C261.24747618 452.28198383 261.24747618 452.28198383 259.55859375 454.7109375 C258.90890625 455.54625 258.90890625 455.54625 258.24609375 456.3984375 C257.58609375 456.3984375 256.92609375 456.3984375 256.24609375 456.3984375 C256.24609375 457.0584375 256.24609375 457.7184375 256.24609375 458.3984375 C253.87109375 461.0234375 253.87109375 461.0234375 251.24609375 463.3984375 C250.58609375 463.3984375 249.92609375 463.3984375 249.24609375 463.3984375 C249.24609375 464.0584375 249.24609375 464.7184375 249.24609375 465.3984375 C247.81189871 466.6325123 246.37163632 467.86059122 244.89453125 469.04296875 C242.51207741 471.0020007 240.39795082 473.19140461 238.24609375 475.3984375 C237.42109375 476.2028125 236.59609375 477.0071875 235.74609375 477.8359375 C233.1724626 480.396488 233.1724626 480.396488 230.80859375 483.3984375 C228.17858143 486.47747631 225.38359035 488.84922151 222.24609375 491.3984375 C220.55897952 493.0444026 218.89153155 494.71080899 217.24609375 496.3984375 C216.42109375 497.2028125 215.59609375 498.0071875 214.74609375 498.8359375 C212.19063512 501.37366703 212.19063512 501.37366703 209.93359375 504.2734375 C208.09456696 506.51843545 206.17699565 508.36999567 203.94995117 510.22802734 C197.40800944 515.89376573 191.40016858 522.1215556 185.296875 528.25 C183.95287208 529.59587209 182.60864517 530.94152054 181.26420593 532.28695679 C177.74422541 535.81073296 174.2272568 539.33750004 170.7109375 542.8649292 C167.13527944 546.45082834 163.55678322 550.03389267 159.97851562 553.6171875 C154.20058962 559.40387342 148.42436703 565.19225291 142.65046692 570.98295593 C133.80694256 579.85160991 133.80694256 579.85160991 130.74609375 582.8359375 C128.19771815 585.35251816 128.19771815 585.35251816 126.05859375 588.2109375 C119.2251497 596.47513389 110.40007732 602.65597002 99.6328125 603.7734375 C88.14554028 604.14287741 80.33619493 601.95471188 71.9375 594.08203125 C71.37933594 593.52644531 70.82117188 592.97085938 70.24609375 592.3984375 C69.73304688 591.94082031 69.22 591.48320313 68.69140625 591.01171875 C62.68904195 584.31178238 61.35513389 574.89158709 61.60546875 566.24609375 C62.71310485 559.5935233 65.7912991 554.11823782 69.24609375 548.3984375 C69.90609375 548.3984375 70.56609375 548.3984375 71.24609375 548.3984375 C71.24609375 547.7384375 71.24609375 547.0784375 71.24609375 546.3984375 C73.62109375 543.7734375 73.62109375 543.7734375 76.24609375 541.3984375 C76.90609375 541.3984375 77.56609375 541.3984375 78.24609375 541.3984375 C78.24609375 540.7384375 78.24609375 540.0784375 78.24609375 539.3984375 C79.62109375 537.7734375 79.62109375 537.7734375 81.24609375 536.3984375 C81.90609375 536.3984375 82.56609375 536.3984375 83.24609375 536.3984375 C83.24609375 535.7384375 83.24609375 535.0784375 83.24609375 534.3984375 C83.90609375 534.3984375 84.56609375 534.3984375 85.24609375 534.3984375 C85.64828125 533.439375 85.64828125 533.439375 86.05859375 532.4609375 C87.24609375 530.3984375 87.24609375 530.3984375 90.24609375 529.3984375 C90.24609375 528.7384375 90.24609375 528.0784375 90.24609375 527.3984375 C90.90609375 527.3984375 91.56609375 527.3984375 92.24609375 527.3984375 C92.57609375 526.4084375 92.90609375 525.4184375 93.24609375 524.3984375 C93.90609375 524.3984375 94.56609375 524.3984375 95.24609375 524.3984375 C95.24609375 523.7384375 95.24609375 523.0784375 95.24609375 522.3984375 C95.90609375 522.3984375 96.56609375 522.3984375 97.24609375 522.3984375 C97.24609375 521.7384375 97.24609375 521.0784375 97.24609375 520.3984375 C97.90609375 520.3984375 98.56609375 520.3984375 99.24609375 520.3984375 C99.57609375 519.4084375 99.90609375 518.4184375 100.24609375 517.3984375 C100.90609375 517.3984375 101.56609375 517.3984375 102.24609375 517.3984375 C102.24609375 516.7384375 102.24609375 516.0784375 102.24609375 515.3984375 C102.90609375 515.3984375 103.56609375 515.3984375 104.24609375 515.3984375 C104.24609375 514.7384375 104.24609375 514.0784375 104.24609375 513.3984375 C104.90609375 513.3984375 105.56609375 513.3984375 106.24609375 513.3984375 C106.57609375 512.4084375 106.90609375 511.4184375 107.24609375 510.3984375 C107.90609375 510.3984375 108.56609375 510.3984375 109.24609375 510.3984375 C109.24609375 509.7384375 109.24609375 509.0784375 109.24609375 508.3984375 C109.90609375 508.3984375 110.56609375 508.3984375 111.24609375 508.3984375 C111.57609375 507.4084375 111.90609375 506.4184375 112.24609375 505.3984375 C112.90609375 505.3984375 113.56609375 505.3984375 114.24609375 505.3984375 C114.24609375 504.7384375 114.24609375 504.0784375 114.24609375 503.3984375 C114.90609375 503.3984375 115.56609375 503.3984375 116.24609375 503.3984375 C116.24609375 502.7384375 116.24609375 502.0784375 116.24609375 501.3984375 C116.90609375 501.3984375 117.56609375 501.3984375 118.24609375 501.3984375 C118.57609375 500.4084375 118.90609375 499.4184375 119.24609375 498.3984375 C119.90609375 498.3984375 120.56609375 498.3984375 121.24609375 498.3984375 C121.24609375 497.7384375 121.24609375 497.0784375 121.24609375 496.3984375 C121.90609375 496.3984375 122.56609375 496.3984375 123.24609375 496.3984375 C123.24609375 495.7384375 123.24609375 495.0784375 123.24609375 494.3984375 C123.90609375 494.3984375 124.56609375 494.3984375 125.24609375 494.3984375 C125.51421875 493.8003125 125.78234375 493.2021875 126.05859375 492.5859375 C127.24526781 490.39995896 128.34208488 488.98511156 130.24609375 487.3984375 C130.90609375 487.3984375 131.56609375 487.3984375 132.24609375 487.3984375 C132.51421875 486.8003125 132.78234375 486.2021875 133.05859375 485.5859375 C134.24526781 483.39995896 135.34208488 481.98511156 137.24609375 480.3984375 C137.90609375 480.3984375 138.56609375 480.3984375 139.24609375 480.3984375 C139.51421875 479.7590625 139.78234375 479.1196875 140.05859375 478.4609375 C141.24609375 476.3984375 141.24609375 476.3984375 144.24609375 475.3984375 C144.94760527 474.0831034 145.611353 472.74726158 146.24609375 471.3984375 C147.74609375 469.6484375 147.74609375 469.6484375 149.24609375 468.3984375 C149.90609375 468.3984375 150.56609375 468.3984375 151.24609375 468.3984375 C151.51421875 467.8003125 151.78234375 467.2021875 152.05859375 466.5859375 C153.24526781 464.39995896 154.34208488 462.98511156 156.24609375 461.3984375 C156.90609375 461.3984375 157.56609375 461.3984375 158.24609375 461.3984375 C158.51421875 460.8003125 158.78234375 460.2021875 159.05859375 459.5859375 C160.24526781 457.39995896 161.34208488 455.98511156 163.24609375 454.3984375 C163.90609375 454.3984375 164.56609375 454.3984375 165.24609375 454.3984375 C165.51421875 453.7590625 165.78234375 453.1196875 166.05859375 452.4609375 C167.24609375 450.3984375 167.24609375 450.3984375 170.24609375 449.3984375 C170.94760527 448.0831034 171.611353 446.74726158 172.24609375 445.3984375 C173.74609375 443.6484375 173.74609375 443.6484375 175.24609375 442.3984375 C175.90609375 442.3984375 176.56609375 442.3984375 177.24609375 442.3984375 C177.51421875 441.8003125 177.78234375 441.2021875 178.05859375 440.5859375 C179.24526781 438.39995896 180.34208488 436.98511156 182.24609375 435.3984375 C182.90609375 435.3984375 183.56609375 435.3984375 184.24609375 435.3984375 C184.51421875 434.8003125 184.78234375 434.2021875 185.05859375 433.5859375 C186.24526781 431.39995896 187.34208488 429.98511156 189.24609375 428.3984375 C189.90609375 428.3984375 190.56609375 428.3984375 191.24609375 428.3984375 C191.51421875 427.8003125 191.78234375 427.2021875 192.05859375 426.5859375 C193.24526781 424.39995896 194.34208488 422.98511156 196.24609375 421.3984375 C196.90609375 421.3984375 197.56609375 421.3984375 198.24609375 421.3984375 C198.47550659 420.84436218 198.70491943 420.29028687 198.94128418 419.71942139 C200.61391891 416.74415331 202.71043838 414.67959053 205.12304688 412.26269531 C205.86481422 411.51567101 205.86481422 411.51567101 206.62156677 410.7535553 C208.25184178 409.11450188 209.8892946 407.48284384 211.52734375 405.8515625 C212.66341956 404.71413935 213.79919835 403.57641946 214.93469238 402.43841553 C217.3121093 400.05805299 219.69309923 397.68133868 222.07666016 395.30712891 C225.13694875 392.25826044 228.18813724 389.2004671 231.23673248 386.13991165 C233.57849136 383.79094119 235.92497371 381.44673608 238.27293396 379.10396576 C239.40037518 377.97786164 240.52632453 376.85026189 241.65077209 375.72116852 C243.21878472 374.14809938 244.79302551 372.58154664 246.36914062 371.01660156 C247.26467651 370.12265686 248.1602124 369.22871216 249.08288574 368.30767822 C251.24609375 366.3984375 251.24609375 366.3984375 253.24609375 366.3984375 C253.51421875 365.7590625 253.78234375 365.1196875 254.05859375 364.4609375 C255.24609375 362.3984375 255.24609375 362.3984375 258.24609375 361.3984375 C259.29630478 359.54872054 259.29630478 359.54872054 260.24609375 357.3984375 C261.74609375 355.1484375 261.74609375 355.1484375 263.24609375 353.3984375 C263.90609375 353.3984375 264.56609375 353.3984375 265.24609375 353.3984375 C265.66761719 352.54185547 265.66761719 352.54185547 266.09765625 351.66796875 C267.22351068 349.44306595 268.40657368 347.26356426 269.62109375 345.0859375 C270.02070312 344.36792969 270.4203125 343.64992188 270.83203125 342.91015625 C271.92931743 340.96110925 273.07444795 339.03896207 274.23828125 337.12890625 C283.22465458 321.319075 283.53828935 299.77157866 280.24609375 282.3359375 C277.13828968 271.45862327 271.30201727 261.18190821 264.49609375 252.21875 C263.24609375 250.3984375 263.24609375 250.3984375 263.24609375 248.3984375 C262.58609375 248.3984375 261.92609375 248.3984375 261.24609375 248.3984375 C260.31796875 247.191875 260.31796875 247.191875 259.37109375 245.9609375 C247.2354792 230.95947812 226.83819274 223.60286982 208.24609375 221.3984375 C186.78523403 220.11719214 168.04239088 225.30995655 150.9765625 238.421875 C148.24609375 240.3984375 148.24609375 240.3984375 146.24609375 240.3984375 C146.24609375 241.0584375 146.24609375 241.7184375 146.24609375 242.3984375 C145.58609375 242.3984375 144.92609375 242.3984375 144.24609375 242.3984375 C144.24609375 243.0584375 144.24609375 243.7184375 144.24609375 244.3984375 C142.81189871 245.6325123 141.37163632 246.86059122 139.89453125 248.04296875 C137.51207741 250.0020007 135.39795082 252.19140461 133.24609375 254.3984375 C130.6948956 256.95825456 128.13481051 259.50826288 125.5625 262.046875 C119.41338878 268.11979207 119.41338878 268.11979207 113.68359375 274.5859375 C112.87921875 275.5140625 112.07484375 276.4421875 111.24609375 277.3984375 C110.58609375 277.3984375 109.92609375 277.3984375 109.24609375 277.3984375 C109.24609375 278.0584375 109.24609375 278.7184375 109.24609375 279.3984375 C106.87109375 282.0234375 106.87109375 282.0234375 104.24609375 284.3984375 C103.58609375 284.3984375 102.92609375 284.3984375 102.24609375 284.3984375 C102.24609375 285.0584375 102.24609375 285.7184375 102.24609375 286.3984375 C99.87109375 289.0234375 99.87109375 289.0234375 97.24609375 291.3984375 C96.58609375 291.3984375 95.92609375 291.3984375 95.24609375 291.3984375 C95.24609375 292.0584375 95.24609375 292.7184375 95.24609375 293.3984375 C92.87109375 296.0234375 92.87109375 296.0234375 90.24609375 298.3984375 C89.58609375 298.3984375 88.92609375 298.3984375 88.24609375 298.3984375 C88.24609375 299.0584375 88.24609375 299.7184375 88.24609375 300.3984375 C86.81189871 301.6325123 85.37163632 302.86059122 83.89453125 304.04296875 C81.51207741 306.0020007 79.39795082 308.19140461 77.24609375 310.3984375 C76.42109375 311.2028125 75.59609375 312.0071875 74.74609375 312.8359375 C72.1724626 315.396488 72.1724626 315.396488 69.80859375 318.3984375 C67.17858143 321.47747631 64.38359035 323.84922151 61.24609375 326.3984375 C59.55897952 328.0444026 57.89153155 329.71080899 56.24609375 331.3984375 C52.87287785 334.77874082 49.49050307 338.14983525 46.10791016 341.52075195 C41.15289207 346.45942394 36.20042233 351.40064306 31.24939919 356.34331989 C28.2639465 359.32355675 25.27756533 362.3028508 22.2890625 365.2800293 C19.38275388 368.1754017 16.47895901 371.0732741 13.57682419 373.97282982 C12.47823122 375.06959099 11.37876627 376.1654795 10.2783699 377.26043129 C4.88517832 382.6279852 -0.44984591 387.99789955 -5.37637329 393.80558777 C-7.38064065 396.1231343 -9.5880662 398.23259745 -11.75390625 400.3984375 C-12.51703125 401.3471875 -13.28015625 402.2959375 -14.06640625 403.2734375 C-17.18068016 407.08197629 -20.81170243 410.4570139 -24.75390625 413.3984375 C-25.41390625 413.3984375 -26.07390625 413.3984375 -26.75390625 413.3984375 C-26.75390625 414.0584375 -26.75390625 414.7184375 -26.75390625 415.3984375 C-53.99370565 438.85286968 -88.23158091 450.90192478 -124.00390625 450.7109375 C-124.73201508 450.70878235 -125.4601239 450.7066272 -126.21029663 450.70440674 C-136.9926757 450.65321496 -147.29486158 450.24815553 -157.75390625 447.3984375 C-158.55038574 447.18912598 -159.34686523 446.97981445 -160.16748047 446.76416016 C-170.83231608 443.91496131 -180.92354653 440.48574428 -190.75390625 435.3984375 C-192.38392578 434.58052734 -192.38392578 434.58052734 -194.046875 433.74609375 C-228.07367561 416.15427773 -253.61708772 384.9720091 -265.96337891 348.91699219 C-277.10884589 313.40845685 -275.45821834 273.31177811 -259.75390625 239.3984375 C-258.3187925 236.69192444 -256.81043001 234.11586625 -255.14453125 231.546875 C-253.75727484 229.40364179 -252.56750103 227.21926757 -251.37890625 224.9609375 C-248.8164469 220.27839778 -245.70861522 216.05657459 -242.5234375 211.78125 C-241.2174639 210.0226542 -239.96896893 208.22103151 -238.75390625 206.3984375 C-238.09390625 206.3984375 -237.43390625 206.3984375 -236.75390625 206.3984375 C-236.52703125 205.8415625 -236.30015625 205.2846875 -236.06640625 204.7109375 C-234.39223362 201.76120477 -232.17558314 199.7610491 -229.75390625 197.3984375 C-229.19703125 196.6353125 -228.64015625 195.8721875 -228.06640625 195.0859375 C-227.63328125 194.5290625 -227.20015625 193.9721875 -226.75390625 193.3984375 C-226.09390625 193.3984375 -225.43390625 193.3984375 -224.75390625 193.3984375 C-224.75390625 192.7384375 -224.75390625 192.0784375 -224.75390625 191.3984375 C-223.31971121 190.1643627 -221.87944882 188.93628378 -220.40234375 187.75390625 C-218.01988991 185.7948743 -215.90576332 183.60547039 -213.75390625 181.3984375 C-212.92890625 180.5940625 -212.10390625 179.7896875 -211.25390625 178.9609375 C-208.6802751 176.400387 -208.6802751 176.400387 -206.31640625 173.3984375 C-203.68639393 170.31939869 -200.89140285 167.94765349 -197.75390625 165.3984375 C-196.06679202 163.7524724 -194.39934405 162.08606601 -192.75390625 160.3984375 C-191.51640625 159.191875 -191.51640625 159.191875 -190.25390625 157.9609375 C-188.43939236 156.10106076 -186.7757916 154.27040926 -185.12890625 152.2734375 C-181.54114029 147.93035239 -181.54114029 147.93035239 -179.75390625 146.3984375 C-179.09390625 146.3984375 -178.43390625 146.3984375 -177.75390625 146.3984375 C-177.75390625 145.7384375 -177.75390625 145.0784375 -177.75390625 144.3984375 C-177.09390625 144.3984375 -176.43390625 144.3984375 -175.75390625 144.3984375 C-175.42390625 143.4084375 -175.09390625 142.4184375 -174.75390625 141.3984375 C-172.81640625 139.2109375 -172.81640625 139.2109375 -170.75390625 137.3984375 C-170.09390625 137.3984375 -169.43390625 137.3984375 -168.75390625 137.3984375 C-168.75390625 136.7384375 -168.75390625 136.0784375 -168.75390625 135.3984375 C-166.37890625 132.7734375 -166.37890625 132.7734375 -163.75390625 130.3984375 C-163.09390625 130.3984375 -162.43390625 130.3984375 -161.75390625 130.3984375 C-161.75390625 129.7384375 -161.75390625 129.0784375 -161.75390625 128.3984375 C-159.37890625 125.7734375 -159.37890625 125.7734375 -156.75390625 123.3984375 C-156.09390625 123.3984375 -155.43390625 123.3984375 -154.75390625 123.3984375 C-154.75390625 122.7384375 -154.75390625 122.0784375 -154.75390625 121.3984375 C-154.09390625 121.3984375 -153.43390625 121.3984375 -152.75390625 121.3984375 C-152.25890625 119.9134375 -152.25890625 119.9134375 -151.75390625 118.3984375 C-151.09390625 118.3984375 -150.43390625 118.3984375 -149.75390625 118.3984375 C-149.75390625 117.7384375 -149.75390625 117.0784375 -149.75390625 116.3984375 C-149.09390625 116.3984375 -148.43390625 116.3984375 -147.75390625 116.3984375 C-147.75390625 115.7384375 -147.75390625 115.0784375 -147.75390625 114.3984375 C-147.09390625 114.3984375 -146.43390625 114.3984375 -145.75390625 114.3984375 C-145.25890625 112.9134375 -145.25890625 112.9134375 -144.75390625 111.3984375 C-144.09390625 111.3984375 -143.43390625 111.3984375 -142.75390625 111.3984375 C-142.75390625 110.7384375 -142.75390625 110.0784375 -142.75390625 109.3984375 C-142.09390625 109.3984375 -141.43390625 109.3984375 -140.75390625 109.3984375 C-140.75390625 108.7384375 -140.75390625 108.0784375 -140.75390625 107.3984375 C-140.09390625 107.3984375 -139.43390625 107.3984375 -138.75390625 107.3984375 C-138.42390625 106.4084375 -138.09390625 105.4184375 -137.75390625 104.3984375 C-136.22265625 102.890625 -136.22265625 102.890625 -134.25390625 101.2734375 C-129.48729761 97.23422874 -125.13115926 92.85130524 -120.75390625 88.3984375 C-115.75390625 83.3984375 -115.75390625 83.3984375 -113.25390625 80.9609375 C-110.6802751 78.400387 -110.6802751 78.400387 -108.31640625 75.3984375 C-105.75390625 72.3984375 -105.75390625 72.3984375 -102.81640625 69.9609375 C-99.79695066 67.43445425 -97.48482395 64.82263212 -95.05078125 61.75390625 C-94.6228125 61.30660156 -94.19484375 60.85929687 -93.75390625 60.3984375 C-93.09390625 60.3984375 -92.43390625 60.3984375 -91.75390625 60.3984375 C-91.75390625 59.7384375 -91.75390625 59.0784375 -91.75390625 58.3984375 C-91.09390625 58.3984375 -90.43390625 58.3984375 -89.75390625 58.3984375 C-89.75390625 57.7384375 -89.75390625 57.0784375 -89.75390625 56.3984375 C-88.37890625 54.7734375 -88.37890625 54.7734375 -86.75390625 53.3984375 C-86.09390625 53.3984375 -85.43390625 53.3984375 -84.75390625 53.3984375 C-84.75390625 52.7384375 -84.75390625 52.0784375 -84.75390625 51.3984375 C-84.09390625 51.3984375 -83.43390625 51.3984375 -82.75390625 51.3984375 C-82.75390625 50.7384375 -82.75390625 50.0784375 -82.75390625 49.3984375 C-81.37890625 47.7734375 -81.37890625 47.7734375 -79.75390625 46.3984375 C-79.09390625 46.3984375 -78.43390625 46.3984375 -77.75390625 46.3984375 C-77.75390625 45.7384375 -77.75390625 45.0784375 -77.75390625 44.3984375 C-75.37890625 41.7734375 -75.37890625 41.7734375 -72.75390625 39.3984375 C-72.09390625 39.3984375 -71.43390625 39.3984375 -70.75390625 39.3984375 C-70.75390625 38.7384375 -70.75390625 38.0784375 -70.75390625 37.3984375 C-68.37890625 34.7734375 -68.37890625 34.7734375 -65.75390625 32.3984375 C-65.09390625 32.3984375 -64.43390625 32.3984375 -63.75390625 32.3984375 C-63.75390625 31.7384375 -63.75390625 31.0784375 -63.75390625 30.3984375 C-62.37890625 28.7734375 -62.37890625 28.7734375 -60.75390625 27.3984375 C-60.09390625 27.3984375 -59.43390625 27.3984375 -58.75390625 27.3984375 C-58.75390625 26.7384375 -58.75390625 26.0784375 -58.75390625 25.3984375 C-58.09390625 25.3984375 -57.43390625 25.3984375 -56.75390625 25.3984375 C-56.75390625 24.7384375 -56.75390625 24.0784375 -56.75390625 23.3984375 C-55.37890625 21.7734375 -55.37890625 21.7734375 -53.75390625 20.3984375 C-53.09390625 20.3984375 -52.43390625 20.3984375 -51.75390625 20.3984375 C-51.75390625 19.7384375 -51.75390625 19.0784375 -51.75390625 18.3984375 C-51.09390625 18.3984375 -50.43390625 18.3984375 -49.75390625 18.3984375 C-49.75390625 17.7384375 -49.75390625 17.0784375 -49.75390625 16.3984375 C-48.37890625 14.7734375 -48.37890625 14.7734375 -46.75390625 13.3984375 C-46.09390625 13.3984375 -45.43390625 13.3984375 -44.75390625 13.3984375 C-44.75390625 12.7384375 -44.75390625 12.0784375 -44.75390625 11.3984375 C-44.09390625 11.3984375 -43.43390625 11.3984375 -42.75390625 11.3984375 C-42.75390625 10.7384375 -42.75390625 10.0784375 -42.75390625 9.3984375 C-31.03959644 -1.90012436 -15.55969558 -7.39938306 0 0 Z " fill="#000000" transform="translate(313.75390625,23.6015625)"/>
<path d="M0 0 C0.77253471 -0.00297112 1.54506942 -0.00594224 2.34101427 -0.0090034 C4.9200928 -0.01764921 7.49912469 -0.01919516 10.07821655 -0.02069092 C11.93152973 -0.02532206 13.78484195 -0.03034712 15.63815308 -0.03573608 C20.66736838 -0.04883479 25.69657035 -0.05530027 30.72580004 -0.05974674 C33.87142521 -0.06268196 37.01704678 -0.06678765 40.16267014 -0.07125092 C50.01486081 -0.08492009 59.86704319 -0.0945892 69.71924269 -0.09845281 C81.07279674 -0.10293023 92.42623021 -0.12046593 103.77974761 -0.1494534 C112.5680963 -0.17110866 121.35641116 -0.18115916 130.14478624 -0.18249393 C135.38773578 -0.18353933 140.63057187 -0.18939058 145.87349319 -0.20731354 C150.80981595 -0.22386044 155.74594079 -0.22591773 160.68228149 -0.21717453 C162.4865408 -0.21640765 164.29081105 -0.22070042 166.09504318 -0.23063278 C179.47419073 -0.29992182 192.53541447 -0.16495006 203.14608765 9.14044189 C209.88286673 16.14314647 212.26119011 23.47881515 212.58358765 33.07794189 C212.36706312 42.20149788 209.84717987 49.7307015 203.14608765 56.14044189 C192.42920087 63.84031219 182.97559823 64.43472232 170.10116577 64.36749268 C168.58276375 64.36692783 167.06436118 64.36724655 165.54595947 64.36837769 C161.44320986 64.36894935 157.34057821 64.35722533 153.23785591 64.34322977 C148.9430718 64.33069124 144.6482847 64.32954946 140.35348511 64.32717896 C132.22930267 64.32097334 124.10517434 64.30457499 115.98101568 64.28447998 C104.99674474 64.25790272 94.01245891 64.24714091 83.02816391 64.23547554 C65.734098 64.21669372 48.44014623 64.17684192 31.14608765 64.14044189 C31.14608765 94.50044189 31.14608765 124.86044189 31.14608765 156.14044189 C40.55882202 156.09403564 49.9715564 156.04762939 59.66952515 155.99981689 C65.63958164 155.97937411 71.60961268 155.95995214 77.5796814 155.94512939 C87.05161227 155.92142279 96.5234005 155.89359941 105.99520874 155.83868408 C112.89442451 155.79870325 119.79352421 155.77298239 126.69285262 155.76408792 C130.34302308 155.75889207 133.99286162 155.74675781 137.64292526 155.71752167 C141.72664605 155.68508007 145.80979685 155.68448965 149.89364624 155.68634033 C151.69116333 155.66476868 151.69116333 155.66476868 153.5249939 155.64276123 C164.39684568 155.69592718 172.33831136 158.45822893 180.2359314 166.00762939 C186.58415233 173.095827 188.53170793 182.29581602 188.08358765 191.64044189 C187.05607471 200.00227129 183.27050569 206.95690086 177.1109314 212.67169189 C171.04100878 217.20904956 164.1891457 219.26787777 156.69180298 219.26069641 C155.58405014 219.26207108 154.4762973 219.26344574 153.3349762 219.26486206 C151.51912773 219.25946915 151.51912773 219.25946915 149.66659546 219.25396729 C148.38829361 219.25411331 147.10999176 219.25425934 145.79295349 219.25440979 C142.29122185 219.25469665 138.78952447 219.24881789 135.28780079 219.24183583 C131.62693773 219.23558378 127.96607388 219.23499703 124.3052063 219.23381042 C117.37442713 219.23070258 110.44366375 219.22249654 103.51289153 219.21246094 C94.14621016 219.19919265 84.77952447 219.19379548 75.41283607 219.18795872 C60.65724145 219.17855629 45.90168012 219.15863372 31.14608765 219.14044189 C31.14608765 252.14044189 31.14608765 285.14044189 31.14608765 319.14044189 C42.13534546 319.09403564 53.12460327 319.04762939 64.4468689 318.99981689 C71.41497163 318.97937519 78.38305257 318.95995334 85.35116577 318.94512939 C96.40763797 318.92141864 107.46398801 318.89358338 118.52035522 318.83868408 C126.57358416 318.79871576 134.62671374 318.77298529 142.68003911 318.76408792 C146.94111289 318.75889003 151.20190252 318.74674205 155.4628849 318.71752167 C159.48072179 318.69019422 163.49815985 318.68203152 167.51608086 318.68801117 C168.98374734 318.68691862 170.45142839 318.67906832 171.91901398 318.66362 C182.64813831 318.55630481 192.79373623 319.72047356 201.5171814 326.53106689 C208.83417496 333.76032672 212.12806963 341.25829284 212.52108765 351.45294189 C212.34105717 360.6874462 209.49081908 367.67963433 203.12265015 374.38653564 C191.91915039 384.32798108 177.81463154 383.43387463 163.71224976 383.39923096 C161.85347863 383.40194456 159.99470858 383.40550757 158.13594055 383.40985107 C153.11126824 383.4189327 148.08667848 383.41544848 143.0620048 383.4090929 C137.79181755 383.40401173 132.52163713 383.40873016 127.25144958 383.41186523 C118.40406023 383.41549839 109.55670433 383.41072251 100.70932007 383.40118408 C90.49368166 383.39029743 80.27812307 383.39382928 70.06248659 383.40483689 C61.27579821 383.41392427 52.4891338 383.41518805 43.70244223 383.40995955 C38.46135847 383.40684827 33.2203122 383.40640742 27.97923088 383.41303253 C23.05191513 383.41882659 18.12470195 383.41477144 13.19739723 383.40324402 C11.39349411 383.40060859 9.5895823 383.40134335 7.78568268 383.40576935 C-5.94834383 383.43634994 -17.88652074 383.16692946 -28.6781311 373.50762939 C-34.82137713 366.85373571 -37.97398823 358.5525589 -37.98534012 349.56930351 C-37.98918126 348.42843595 -37.99302241 347.2875684 -37.99697995 346.11212909 C-37.99611347 344.85826156 -37.99524699 343.60439403 -37.99435425 342.31253052 C-37.9969382 340.96739464 -37.99995145 339.62225953 -38.00335765 338.27712548 C-38.01142752 334.57715052 -38.01321722 330.87719496 -38.01395512 327.17721224 C-38.01580573 323.18795533 -38.02335317 319.19870849 -38.03009033 315.2094574 C-38.04367474 306.48409587 -38.04969872 297.75873893 -38.05410099 289.03336859 C-38.05686359 283.58451204 -38.06110102 278.13565726 -38.06560516 272.68680191 C-38.07779866 257.59904275 -38.08809737 242.51128502 -38.09148026 227.42352104 C-38.09169982 226.45776827 -38.09191939 225.49201549 -38.09214561 224.49699748 C-38.09236388 223.52893648 -38.09258216 222.56087549 -38.09280705 221.5634793 C-38.09325052 219.60182881 -38.09369708 217.64017832 -38.09414673 215.67852783 C-38.09436816 214.70548191 -38.09458959 213.73243599 -38.09481773 212.72990383 C-38.09876449 196.96826764 -38.11621443 181.20667772 -38.13950625 165.4450594 C-38.16322936 149.26084504 -38.17568257 133.07665388 -38.17684817 116.89242184 C-38.17776447 107.80643833 -38.18350516 98.72051508 -38.20166779 89.63454819 C-38.21708181 81.89630369 -38.2221816 74.15813808 -38.21392968 66.41988115 C-38.2100276 62.47333575 -38.21093103 58.52694914 -38.22498703 54.58042336 C-38.23775272 50.96300705 -38.23650525 47.34586841 -38.22439632 43.72845234 C-38.22152345 41.80936213 -38.23335496 39.89026701 -38.24581838 37.97121513 C-38.18026579 26.46677238 -36.12857931 17.46284731 -27.85391235 9.14044189 C-19.15403996 2.18352339 -11.06855992 -0.01343956 0 0 Z " fill="#000000" transform="translate(894.8539123535156,137.85955810546875)"/>
<path d="M0 0 C7.75932336 7.08818649 13.82305791 14.14826122 14.84765625 24.97802734 C14.97659642 37.39496552 12.14713932 45.38813717 3.51171875 54.42724609 C-3.36639968 59.99202301 -10.87422596 61.99428829 -19.66015625 61.80224609 C-26.42323148 60.90548474 -31.75309309 57.0162181 -37.17578125 53.11474609 C-66.17300848 32.42797228 -103.33534672 23.89907513 -138.4921875 27.88818359 C-154.19063277 30.538368 -169.67964808 36.7753889 -180.01953125 49.31005859 C-186.59945502 58.79494871 -187.49772843 69.20780458 -186.48828125 80.42724609 C-184.28026052 90.81125214 -178.17837518 99.41797837 -169.48828125 105.42724609 C-150.04154803 117.87213319 -126.73075243 121.70634941 -104.48828125 126.42724609 C-50.40174042 137.94816192 -50.40174042 137.94816192 -27.48828125 149.42724609 C-26.85599609 149.74274414 -26.22371094 150.05824219 -25.57226562 150.38330078 C-5.75254289 160.48152277 9.7319669 176.38998096 17.51171875 197.42724609 C26.73187357 227.22869945 27.34342072 261.88037025 12.76171875 290.11474609 C-5.69827342 321.93580676 -36.66378605 340.96576093 -71.48828125 350.42724609 C-86.78152878 354.36207124 -102.13074008 355.82426768 -117.86328125 355.73974609 C-118.59473358 355.73759094 -119.32618591 355.73543579 -120.07980347 355.73321533 C-162.65264375 355.5339458 -202.45190312 345.61884476 -236.48828125 319.42724609 C-237.06771484 318.98622559 -237.64714844 318.54520508 -238.24414062 318.09082031 C-248.66128818 310.06984793 -256.38900696 301.67276087 -259.109375 288.39599609 C-260.3634234 278.5704622 -257.96846682 270.65898927 -252.48828125 262.42724609 C-246.53080931 255.5904425 -240.74154187 251.80752349 -231.7109375 251.15380859 C-230.3036835 251.10925347 -228.8960478 251.07553367 -227.48828125 251.05224609 C-226.82368896 251.03806641 -226.15909668 251.02388672 -225.47436523 251.00927734 C-216.34599088 251.09904624 -210.32949821 254.91783329 -203.42578125 260.55224609 C-178.24015332 280.38703079 -151.10208388 290.89705979 -118.80078125 290.80224609 C-118.09962189 290.80170227 -117.39846252 290.80115845 -116.67605591 290.80059814 C-105.53956834 290.76097949 -95.10615118 289.98014872 -84.48828125 286.42724609 C-83.51084961 286.11376221 -83.51084961 286.11376221 -82.51367188 285.79394531 C-67.87159851 280.96986635 -53.24952082 272.28247822 -46.05078125 258.11474609 C-42.21349431 248.32540076 -42.86627142 238.04674633 -46.6796875 228.41943359 C-54.01725013 212.46473337 -68.38767654 204.13548025 -84.44775391 198.14941406 C-100.73742488 192.3842972 -117.51309802 189.39341079 -134.48828125 186.42724609 C-165.65498798 180.93793283 -197.3896943 173.21889909 -221.48828125 151.42724609 C-222.41511719 150.59451172 -223.34195313 149.76177734 -224.296875 148.90380859 C-243.13093264 131.08851413 -252.65459061 106.1266663 -253.48828125 80.42724609 C-253.52824219 79.50298828 -253.56820313 78.57873047 -253.609375 77.62646484 C-254.20129089 51.89553295 -247.12440027 27.25819074 -230.48828125 7.42724609 C-229.82570313 6.59064453 -229.163125 5.75404297 -228.48046875 4.89208984 C-208.91504453 -18.57897989 -178.59059609 -29.87703196 -149.48828125 -35.57275391 C-148.81249023 -35.70552734 -148.13669922 -35.83830078 -147.44042969 -35.97509766 C-98.80277101 -44.88657809 -37.82526762 -33.11798404 0 0 Z " fill="#000000" transform="translate(2296.48828125,170.57275390625)"/>
<path d="M0 0 C0.01417969 -0.60585937 0.02835938 -1.21171875 0.04296875 -1.8359375 C0.56687386 -11.03967595 3.47478444 -17.95930725 10.1875 -24.375 C19.64004211 -32.03000951 29.19501092 -33.16370319 41 -32 C50.09607188 -29.97732086 57.98025644 -23.80848998 63 -16 C65.81057688 -9.52629017 66.43297165 -3.6015243 66.38768005 3.39207458 C66.39575836 4.90598198 66.39575836 4.90598198 66.40399987 6.45047337 C66.41824086 9.81273013 66.41118512 13.17459105 66.40405273 16.53686523 C66.40975828 18.95543737 66.41672326 21.37400681 66.42485046 23.79257202 C66.44091628 29.6682151 66.44288677 35.54375933 66.43763756 41.41941267 C66.43358742 46.19744134 66.43504941 50.97543848 66.44038582 55.75346565 C66.44113424 56.43487324 66.44188266 57.11628083 66.44265376 57.81833713 C66.44418532 59.20284502 66.44572367 60.5873529 66.44726873 61.97186077 C66.46097934 74.93942182 66.45556611 87.90692245 66.44408352 100.8744821 C66.43415148 112.72359061 66.44709379 124.57254296 66.47101771 136.42162739 C66.49543169 148.60577055 66.50501102 160.78984103 66.49836498 172.97400814 C66.49487801 179.80751625 66.49707029 186.6409043 66.51461601 193.47439384 C66.53091189 199.90047483 66.52612063 206.32633133 66.50731087 212.75240707 C66.50362724 215.10738506 66.5067268 217.46238517 66.51719666 219.81734276 C66.53042308 223.03888442 66.51884346 226.25944188 66.50120544 229.48094177 C66.51081045 230.40673851 66.52041546 231.33253525 66.53031152 232.28638643 C66.42172165 241.9651262 62.92060579 251.09421349 56 258 C46.65088285 265.16712559 38.00611981 266.68996345 26.43359375 265.59375 C17.44558352 264.03950932 10.54910872 259.1547536 5 252 C2.09814175 246.98220344 0.42753529 241.59117987 -1 236 C-1.60585937 236.56847656 -2.21171875 237.13695312 -2.8359375 237.72265625 C-29.01647519 261.84902868 -59.69271894 272.47354021 -94.99951172 271.1640625 C-124.99090081 269.52417532 -152.44432558 256.6989306 -174 236 C-174.88300781 235.18015625 -175.76601562 234.3603125 -176.67578125 233.515625 C-205.38973444 206.06069946 -218.97794256 166.14924368 -220 127 C-220.03996094 125.85402344 -220.07992187 124.70804688 -220.12109375 123.52734375 C-220.80801742 86.39305804 -212.00264075 47.23629925 -188 18 C-187.59845703 17.49597656 -187.19691406 16.99195313 -186.78320312 16.47265625 C-166.52721451 -8.93109488 -137.63270865 -27.99910203 -104.77294922 -31.77294922 C-65.32235959 -35.00318767 -30.49507311 -25.46768579 0 0 Z M-135.87109375 56.20703125 C-152.97655128 78.64813609 -158.59800946 107.14532439 -155.5390625 134.80859375 C-152.3532984 158.33229602 -141.0327384 181.16525274 -122.0625 195.8671875 C-104.02118081 208.43167765 -84.82296901 212.2872517 -63.04296875 209.4921875 C-43.48411279 205.73999242 -26.82915081 195.08723059 -14.90234375 179.20703125 C-13.14165889 176.52537278 -11.54485776 173.81100407 -10 171 C-9.47921875 170.08992187 -8.9584375 169.17984375 -8.421875 168.2421875 C0.18798101 152.283515 4.20505914 133.10152671 3 115 C2.95891113 114.37577148 2.91782227 113.75154297 2.87548828 113.10839844 C1.3093568 91.4227312 -4.99325804 70.27803134 -20 54 C-21.15822266 52.72189453 -21.15822266 52.72189453 -22.33984375 51.41796875 C-36.02873016 36.9938183 -53.51610572 29.16634435 -73.3059082 28.59521484 C-98.4195171 28.32195268 -119.18173557 36.95007951 -135.87109375 56.20703125 Z " fill="#000000" transform="translate(3617,255)"/>
<path d="M0 0 C8.54965068 6.01313606 14.8464028 12.78340276 16.8828125 23.32421875 C17.18746058 27.38289438 17.1939116 31.43290652 17.20166016 35.50170898 C17.21170578 36.71217392 17.2217514 37.92263885 17.23210144 39.16978455 C17.25760587 42.47095486 17.27451396 45.77195508 17.28752947 49.07318377 C17.30321418 52.52988182 17.32998723 55.98649401 17.3555603 59.44313049 C17.40225392 65.9806525 17.43904342 72.51819083 17.47223318 79.05579382 C17.51052133 86.50205872 17.55991384 93.94823718 17.61021733 101.39442909 C17.71339702 116.7042964 17.80270257 132.01421228 17.8828125 147.32421875 C19.64717083 145.39977204 21.41148785 143.47528749 23.17578125 141.55078125 C23.67267456 141.00881104 24.16956787 140.46684082 24.68151855 139.90844727 C25.40993958 139.11386108 25.40993958 139.11386108 26.15307617 138.30322266 C26.62549744 137.78804581 27.0979187 137.27286896 27.58465576 136.74208069 C28.65655303 135.57134199 29.7250914 134.39752892 30.79272461 133.22290039 C46.04627638 116.65241882 71.87947316 104.50150358 94.19311523 103.11914062 C97.77992735 103.02035398 101.35718822 102.99513667 104.9453125 103.01171875 C106.22301514 103.0173584 107.50071777 103.02299805 108.81713867 103.02880859 C128.55495656 103.2808179 148.22097808 106.35259739 163.8828125 119.32421875 C164.72328125 120.00355469 165.56375 120.68289062 166.4296875 121.3828125 C190.83230522 142.12503756 196.82602618 174.61889872 199.69411135 204.95844841 C200.21636118 211.50596096 200.17824643 218.06691047 200.17333984 224.63085938 C200.1793465 226.27244363 200.18615681 227.9140251 200.19369507 229.55560303 C200.21112546 233.95177815 200.21604 238.34787515 200.21732664 242.7440815 C200.21875971 245.49912935 200.2230504 248.25415802 200.22832108 251.00920105 C200.24673107 260.64286539 200.25500135 270.27647489 200.25341797 279.91015625 C200.25221256 288.8592915 200.27341616 297.80818718 200.3049053 306.75726175 C200.33109333 314.47747372 200.34178451 322.19760736 200.34050715 329.91786337 C200.33999913 334.51338793 200.34559612 339.10869799 200.36686325 343.70417786 C200.38629367 348.01857981 200.3863376 352.33256315 200.37182999 356.64698029 C200.36974816 358.22310756 200.37440525 359.79926147 200.3865509 361.37534332 C200.47352193 373.44826058 199.12182379 382.6541527 190.60546875 391.640625 C182.2129963 399.84279195 174.41883781 401.31110963 162.8828125 401.32421875 C153.92098538 400.59073588 146.69667079 396.08086487 140.8828125 389.32421875 C136.21661514 382.78611664 133.63909624 376.95306745 133.61779785 368.78126526 C133.60952469 367.48208664 133.60125153 366.18290802 133.59272766 364.84436035 C133.59355217 363.4165038 133.59454978 361.98864734 133.59570312 360.56079102 C133.58967429 359.04731377 133.58274887 357.53383988 133.57499695 356.02037048 C133.56013206 352.76615482 133.55136456 349.51200025 133.54728699 346.25775337 C133.54055056 341.0989335 133.51876548 335.94024326 133.49475098 330.78147888 C133.44582256 319.81658933 133.41352867 308.85167212 133.3828125 297.88671875 C133.34966417 286.07799142 133.31347269 274.26931495 133.25868177 262.46066517 C133.23551121 257.34673048 133.22163664 252.23288516 133.21518707 247.11890328 C133.20918788 243.91579918 133.19503923 240.71276606 133.17884254 237.50969887 C133.17303696 236.04051399 133.17047938 234.57131149 133.17168236 233.10211563 C133.18327915 213.26527095 131.57854861 192.00905543 117.7578125 176.57421875 C105.82259881 165.40475992 90.86992399 164.82541193 75.49609375 165.08203125 C58.83173751 165.63981086 44.34869503 172.1576434 32.8828125 184.32421875 C19.7441554 198.67613022 17.40649606 217.4727033 17.51391602 236.09692383 C17.51143999 237.60998811 17.50759352 239.12305066 17.50250244 240.6361084 C17.49424696 243.86075942 17.49490046 247.08523333 17.50268745 250.30988503 C17.51439263 255.41766469 17.50200906 260.52522228 17.48606873 265.63298035 C17.45008995 278.30857052 17.44364545 290.98415334 17.44616699 303.65979004 C17.44788139 313.53769907 17.44069286 323.41542333 17.40618843 333.29328078 C17.38947292 338.36275302 17.39111901 343.43177236 17.40701115 348.50124228 C17.41283348 351.65935127 17.40202421 354.81724812 17.38676453 357.97531891 C17.38305911 359.43049458 17.38608567 360.88570677 17.39663506 362.34084892 C17.47648947 374.14873339 15.8641703 382.9260291 7.60546875 391.640625 C-0.7870037 399.84279195 -8.58116219 401.31110963 -20.1171875 401.32421875 C-29.07901462 400.59073588 -36.30332921 396.08086487 -42.1171875 389.32421875 C-46.68885853 382.91856341 -49.36384928 377.11645754 -49.37445641 369.10093307 C-49.3809053 367.86551513 -49.38735419 366.63009719 -49.3939985 365.35724235 C-49.39105651 363.99440708 -49.3879211 362.63157222 -49.38461304 361.26873779 C-49.38835083 359.81462946 -49.39295286 358.36052314 -49.39834368 356.90641999 C-49.4105733 352.91450358 -49.41031326 348.92267099 -49.40795493 344.93074012 C-49.40754675 340.62385248 -49.41858604 336.3169917 -49.42807007 332.01011658 C-49.44468106 323.57333344 -49.45017967 315.13657826 -49.45129482 306.69978014 C-49.45224529 299.84121341 -49.45635554 292.98265591 -49.46269608 286.1240921 C-49.48030911 266.67604542 -49.4895349 247.2280208 -49.48803513 227.77996609 C-49.48795522 226.7315763 -49.4878753 225.68318652 -49.48779297 224.60302734 C-49.48771121 223.55335644 -49.48762945 222.50368554 -49.48754521 221.42220643 C-49.48673239 204.4126411 -49.50586881 187.40316435 -49.5340697 170.39362463 C-49.56280196 152.92564839 -49.57660979 135.45771534 -49.57488215 117.98971486 C-49.57421834 108.18386803 -49.57970643 98.37811405 -49.60123825 88.57228851 C-49.61945457 80.22289014 -49.6237937 71.87362669 -49.6102194 63.52421704 C-49.60369191 59.26573168 -49.60356456 55.00750512 -49.6209259 50.74904442 C-49.63667158 46.84667713 -49.63377803 42.94477352 -49.61635764 39.04241744 C-49.613291 37.63461991 -49.61690751 36.22678764 -49.62807779 34.81903109 C-49.71301472 23.35036623 -47.9973749 14.56167658 -39.9765625 6.078125 C-29.90289485 -3.42413713 -12.65944702 -7.07439686 0 0 Z " fill="#000000" transform="translate(1463.1171875,119.67578125)"/>
<path d="M0 0 C7.80424863 4.58946105 13.55347455 10.93195156 16.375 19.5625 C17.19009592 23.03910477 17.50771019 26.26582447 17.53321838 29.83332825 C17.5430072 30.87514252 17.55279602 31.91695679 17.56288147 32.99034119 C17.56863693 34.12250565 17.5743924 35.2546701 17.58032227 36.42114258 C17.59022186 37.62156189 17.60012146 38.8219812 17.61032104 40.05877686 C17.63645623 43.3414215 17.6583399 46.62406124 17.67832303 49.90674806 C17.70023598 53.34074623 17.72759862 56.7747009 17.75437927 60.20866394 C17.80423453 66.70730359 17.84919985 73.20596748 17.89240164 79.7046544 C17.94183538 87.10490007 17.99673069 94.50510209 18.05208123 101.9053055 C18.16579121 117.12432997 18.27265403 132.34339462 18.375 147.5625 C18.99441467 146.87366226 19.61382935 146.18482452 20.25201416 145.47511292 C21.06378113 144.57268356 21.8755481 143.67025421 22.71191406 142.74047852 C23.51695374 141.84539078 24.32199341 140.95030304 25.15142822 140.02809143 C42.93784594 120.30575121 67.59081373 105.02979704 94.69921875 103.35742188 C98.30218128 103.25879329 101.89573824 103.23386612 105.5 103.25 C106.77738037 103.25418945 108.05476074 103.25837891 109.37084961 103.26269531 C131.99802557 103.53232256 154.03766189 108.67455644 170.8125 124.83984375 C196.36986564 151.99454475 200.48967354 191.10064652 200.55200195 226.80493164 C200.55828243 228.40459841 200.56493057 230.00426376 200.57191467 231.60392761 C200.59274968 236.81016055 200.60328991 242.01639314 200.61328125 247.22265625 C200.61733495 249.02528841 200.62145204 250.82792042 200.62563133 252.63055229 C200.64462891 261.09501806 200.65887744 269.55947534 200.6672433 278.02395827 C200.67702934 287.76048735 200.70340731 297.49678995 200.74374419 307.23323923 C200.77395515 314.78688335 200.78871643 322.3404626 200.79202431 329.89416593 C200.79436675 334.39425397 200.80322372 338.89409848 200.82848549 343.39412117 C200.85186251 347.62553203 200.85596109 351.85654049 200.84572411 356.08799934 C200.84523117 357.63307031 200.85147966 359.17816182 200.86528015 360.72317123 C200.97699743 373.98006596 199.11998908 383.74710813 189.6640625 393.46484375 C182.24653469 400.26213459 173.87299601 401.8813647 164 401.5625 C155.21476633 400.66118475 147.51110521 397.2488827 141.375 390.8125 C134.5012829 381.6406654 133.79162913 372.7596405 133.86083984 361.56030273 C133.85536904 360.0691811 133.84812181 358.57806511 133.83924866 357.08695984 C133.82398549 353.89275461 133.82107899 350.69887023 133.82801437 347.50463676 C133.83887517 342.43729686 133.82132836 337.37028683 133.80020142 332.30299377 C133.77000298 324.27351416 133.75825372 316.24413327 133.75462496 308.21460158 C133.74797859 293.87180844 133.71860202 279.52908579 133.6695286 265.18637615 C133.65319063 260.16663378 133.64758261 255.14703499 133.65111899 250.12726867 C133.65156154 246.98089606 133.64391065 243.8345759 133.63444328 240.68821907 C133.63180043 239.24888956 133.63244242 237.80954886 133.63695335 236.370224 C133.69932143 214.95808232 132.38325099 192.14444281 116.96484375 175.828125 C104.49865539 164.92256052 88.86458247 164.75566152 73.19677734 165.3671875 C56.10745116 166.55004448 42.87014723 174.34549947 31.37109375 186.71875 C19.91160607 200.38103336 17.90699857 217.99680474 18.00610352 235.20581055 C18.00362816 236.71710481 17.99978236 238.22839735 17.99468994 239.73968506 C17.98642665 242.96380582 17.98709493 246.18774948 17.99487495 249.41187096 C18.00657138 254.5198453 17.994203 259.62759722 17.97825623 264.73554993 C17.94226007 277.41405952 17.93583117 290.09256202 17.93835449 302.77111816 C17.94006943 312.6464253 17.93285863 322.5215476 17.89837593 332.3968032 C17.8816702 337.46516057 17.88329842 342.53306483 17.89919865 347.60141981 C17.90502711 350.76176277 17.8942005 353.92189425 17.87895203 357.0821991 C17.87525102 358.53695389 17.87826011 359.99174529 17.88882256 361.44646645 C17.9773449 374.51793658 15.92117117 383.95143076 6.6640625 393.46484375 C-0.75346531 400.26213459 -9.12700399 401.8813647 -19 401.5625 C-27.78523367 400.66118475 -35.48889479 397.2488827 -41.625 390.8125 C-48.41368282 381.76084389 -49.20912172 373.00136433 -49.13293457 361.94334412 C-49.13755014 360.47681739 -49.14390744 359.01029529 -49.15184355 357.54378277 C-49.16846999 353.5360657 -49.16032124 349.52873191 -49.14789867 345.52101386 C-49.13882304 341.19034453 -49.15283029 336.85973965 -49.16381836 332.52908325 C-49.18158095 324.05437391 -49.17777381 315.57980647 -49.1661678 307.10509162 C-49.15712544 300.21656987 -49.15591294 293.32808783 -49.16026306 286.43956184 C-49.16087599 285.45826201 -49.16148893 284.47696217 -49.16212043 283.46592598 C-49.16339936 281.47229789 -49.16469621 279.47866981 -49.1660108 277.48504175 C-49.17740982 258.80241094 -49.16431321 240.11985871 -49.14280933 221.43724079 C-49.12493618 205.41295518 -49.12804557 189.38878547 -49.14648438 173.36450195 C-49.16789823 154.74607929 -49.17631419 136.12772544 -49.16403532 117.50929219 C-49.16276115 115.52340226 -49.16150367 113.53751233 -49.16026306 111.55162239 C-49.15964596 110.57457953 -49.15902886 109.59753667 -49.15839306 108.59088646 C-49.15494191 101.71156431 -49.16076336 94.83228588 -49.17018127 87.9529705 C-49.18140823 79.56812622 -49.17834643 71.1834317 -49.1570583 62.79860454 C-49.1465577 58.52199853 -49.14240915 54.24564208 -49.15565491 49.96903801 C-49.16760509 46.05144631 -49.16097344 42.13433464 -49.1397447 38.21678627 C-49.13528974 36.80240355 -49.13752002 35.38797997 -49.14724785 33.97362369 C-49.19828069 25.93495666 -48.7493642 19.5703171 -44.625 12.5625 C-44.24675095 11.90982145 -43.8685019 11.2571429 -43.47879076 10.58468622 C-34.89412457 -3.51040235 -14.21933358 -6.54742273 0 0 Z " fill="#000000" transform="translate(2686.625,119.4375)"/>
<path d="M0 0 C0.71020294 -0.00067474 1.42040588 -0.00134949 2.15213013 -0.00204468 C42.76624873 0.05911514 79.09996454 15.19345528 108.11279297 43.71484375 C137.24128054 73.28538457 149.80637775 113.51773965 149.67431641 154.36987305 C148.9675256 195.64715603 134.82806505 231.2875755 106.625 261.25 C105.80322266 262.15105469 105.80322266 262.15105469 104.96484375 263.0703125 C80.31972498 289.10815297 42.73466076 302.40633939 7.54296875 303.53515625 C-35.12332105 304.31992674 -73.55905598 291.97372577 -104.77636719 262.2512207 C-133.57044474 234.01995795 -147.86883895 195.23079578 -148.54150391 155.30615234 C-148.90622738 110.90319033 -134.41160952 72.04687229 -103.375 40.25 C-75.65165214 12.83468934 -38.47392381 0.03290133 0 0 Z M-62.09765625 90.3515625 C-69.76367079 100.10830828 -74.73120042 110.48522619 -78.375 122.25 C-78.88740234 123.89935547 -78.88740234 123.89935547 -79.41015625 125.58203125 C-85.84728305 151.30059834 -81.87204423 179.32071815 -69.125 202.3125 C-57.34038754 221.75077475 -40.3790829 234.81076503 -18.49609375 240.55859375 C3.3132749 245.38995577 24.6026703 241.80357388 43.625 230.25 C46.80262041 228.0870819 49.73139165 225.77481513 52.625 223.25 C53.594375 222.4765625 54.56375 221.703125 55.5625 220.90625 C71.90184397 207.26624958 79.97691963 184.67983089 82.625 164.25 C84.82210928 134.83662022 78.69616484 108.76661248 59.375 86.0625 C44.73041404 70.46826512 24.87240429 61.48047494 3.52563477 60.77929688 C-22.63892486 60.5092111 -44.91624569 70.46902257 -62.09765625 90.3515625 Z " fill="#000000" transform="translate(3080.375,222.75)"/>
<path d="M0 0 C0.71303284 -0.00067474 1.42606567 -0.00134949 2.16070557 -0.00204468 C13.57392269 0.01508459 24.5451779 0.64576737 35.6875 3.25 C36.79424072 3.49943359 36.79424072 3.49943359 37.92333984 3.75390625 C60.13828794 8.9013304 80.45264584 19.30920492 97.6875 34.25 C98.91339844 35.29414063 98.91339844 35.29414063 100.1640625 36.359375 C129.72363856 62.16680673 146.47701412 98.38556732 149.41015625 137.28125 C151.96210343 178.69943427 142.73347704 220.62711403 114.890625 252.50390625 C112.2223564 255.48462496 109.46295815 258.36909131 106.6875 261.25 C106.04554688 261.95511719 105.40359375 262.66023438 104.7421875 263.38671875 C85.479428 283.94200107 57.75032757 295.61990821 30.6875 301.25 C29.50542969 301.4975 28.32335938 301.745 27.10546875 302 C-11.80787255 308.52330751 -53.89242422 300.07894022 -86.41308594 277.62695312 C-92.04077164 273.54724266 -97.21193649 268.96170225 -102.3125 264.25 C-103.19421875 263.45078125 -104.0759375 262.6515625 -104.984375 261.828125 C-133.80519475 234.47588205 -146.71001834 196.17249888 -148.3125 157.25 C-149.27640039 117.61751164 -138.14255194 80.63283088 -112.3125 50.25 C-111.51328125 49.30382812 -110.7140625 48.35765625 -109.890625 47.3828125 C-82.308144 15.58366946 -41.42096855 0.0352006 0 0 Z M-50.3125 79.25 C-51.01246094 79.7965625 -51.71242188 80.343125 -52.43359375 80.90625 C-69.83564371 95.1415491 -78.87890185 117.34761669 -81.3125 139.25 C-82.83829486 167.13284142 -78.40323991 190.86398446 -61.3125 213.25 C-60.83425781 213.91257812 -60.35601563 214.57515625 -59.86328125 215.2578125 C-48.69395734 229.6806632 -29.33807791 239.19865401 -11.60888672 241.97314453 C10.33572841 244.61881682 32.56125527 239.74230319 50.25195312 226.03808594 C68.58753558 210.96291994 79.56431898 189.64258903 82.6875 166.25 C83.76212928 150.29986786 83.47755238 134.5655622 78.6875 119.25 C78.336875 118.10015625 77.98625 116.9503125 77.625 115.765625 C70.20188368 94.2179679 54.55394133 78.6983659 34.9375 67.9375 C7.33792927 55.00245315 -27.15073204 59.29524606 -50.3125 79.25 Z " fill="#000000" transform="translate(1856.3125,222.75)"/>
<path d="M0 0 C0.9075 0.41636719 1.815 0.83273438 2.75 1.26171875 C14.97674644 7.32298936 24.30203546 16.03881721 29 29 C31.44606569 38.708298 30.85948986 49.5219772 25.67578125 58.22265625 C21.1792064 64.53674429 16.5045656 69.39865123 8.62109375 70.78125 C-4.80988904 71.9021666 -13.22410062 68.02275157 -23.8125 60.5 C-40.88189471 48.40190786 -62.5582086 46.66637418 -82.9296875 49.6171875 C-102.70929681 53.1632654 -120.71476138 64.11708751 -133 80 C-148.88036562 103.57993683 -153.76165882 132.35064043 -148.33813477 160.17553711 C-145.05334764 175.5468687 -138.56580577 190.21170431 -128 202 C-127.27296875 202.81984375 -126.5459375 203.6396875 -125.796875 204.484375 C-111.99283344 219.17899989 -92.98819483 227.55030309 -72.92578125 228.28515625 C-50.30383314 228.75388434 -32.62242395 226.44540601 -14.18359375 212.48046875 C-6.88340481 207.53096677 2.73091381 207.24264158 11.25 208.5625 C18.62465627 210.36119665 24.9497005 214.65631394 29.00390625 221.109375 C33.20616009 229.08541758 34.08832183 237.03914454 33 246 C28.68318716 259.23467311 17.85828194 266.87727561 6.07421875 273.14453125 C-32.10737383 292.46599753 -83.17529386 296.67149917 -123.90625 283.44140625 C-139.93139062 277.94040975 -154.08930499 270.05425521 -167 259 C-167.80953125 258.32453125 -168.6190625 257.6490625 -169.453125 256.953125 C-197.5643358 232.73151569 -212.95900712 196.26007229 -216.80151367 159.85473633 C-217.27957074 152.97906436 -217.2449637 146.07698204 -217.25 139.1875 C-217.25067474 138.35986145 -217.25134949 137.5322229 -217.25204468 136.67950439 C-217.2359019 124.21758079 -216.77149944 112.19623426 -214 100 C-213.83371094 99.22672363 -213.66742187 98.45344727 -213.49609375 97.65673828 C-208.34299221 74.17672652 -198.0782881 51.99365464 -182 34 C-180.75476562 32.54013672 -180.75476562 32.54013672 -179.484375 31.05078125 C-161.18438075 9.92627426 -135.94871115 -3.47570417 -109 -10 C-108.33887207 -10.16516113 -107.67774414 -10.33032227 -106.99658203 -10.50048828 C-73.71768432 -18.38598058 -30.80646493 -14.82113357 0 0 Z " fill="#000000" transform="translate(2569,236)"/>
<path d="M0 0 C0.75059692 -0.00701431 1.50119385 -0.01402863 2.27453613 -0.02125549 C4.69089819 -0.03868927 7.10701481 -0.04511014 9.5234375 -0.046875 C10.35035095 -0.04754974 11.1772644 -0.04822449 12.02923584 -0.04891968 C42.86762616 -0.00897648 77.5233869 4.31319232 101.2734375 25.953125 C109.59765287 34.71179838 112.28515816 44.82401389 112.17578125 56.52734375 C111.52833127 65.10833578 108.072277 73.12955667 101.8984375 79.203125 C95.49666383 84.04314729 87.85258286 84.58579002 80.06640625 83.984375 C70.95658886 82.65931065 64.66574919 78.5608283 57.3984375 73.140625 C41.13949632 61.20992609 19.3223712 59.91924317 -0.2265625 62.70703125 C-21.02162079 66.76856607 -40.00365616 77.55208133 -52.1015625 95.203125 C-67.94041439 119.55240478 -71.53169751 148.72990576 -65.65380859 176.90283203 C-62.11960342 191.62399965 -55.04876542 204.85116442 -45.1015625 216.203125 C-44.21210937 217.23566406 -44.21210937 217.23566406 -43.3046875 218.2890625 C-30.95729859 231.63901718 -12.27914187 240.31787312 5.78662109 241.37158203 C29.43873167 242.23791987 48.40825487 240.30574165 67.71484375 225.68359375 C75.01503269 220.73409177 84.62935131 220.44576658 93.1484375 221.765625 C101.60043894 223.8511838 107.10702418 228.62517585 111.70703125 235.859375 C115.78851205 243.88851755 116.49521359 253.98812823 114.24609375 262.7421875 C113.30451577 264.77082333 112.24911144 266.42250681 110.8984375 268.203125 C110.45886719 268.84121094 110.01929688 269.47929687 109.56640625 270.13671875 C92.45419403 292.36093361 56.41621238 299.0039978 30.56884766 302.52001953 C-2.13444247 306.30571826 -36.24449064 302.77232545 -65.1015625 286.203125 C-65.70162109 285.85910645 -66.30167969 285.51508789 -66.91992188 285.16064453 C-98.98600332 266.40880573 -120.00733202 235.40003582 -129.57421875 199.89453125 C-130.02886876 198.10358321 -130.47569423 196.31062772 -130.9140625 194.515625 C-131.1090332 193.72188477 -131.30400391 192.92814453 -131.50488281 192.11035156 C-134.53283225 178.88243135 -135.48859802 165.61170272 -135.4140625 152.078125 C-135.41190735 151.36523315 -135.4097522 150.65234131 -135.40753174 149.91784668 C-135.28254473 123.96823222 -130.62338535 99.58303535 -119.1015625 76.203125 C-118.534375 75.05199219 -117.9671875 73.90085937 -117.3828125 72.71484375 C-100.71914664 40.48579909 -72.07578157 17.31270561 -37.76513672 6.15087891 C-25.50444992 2.35444956 -12.84998488 0.08090086 0 0 Z " fill="#000000" transform="translate(1263.1015625,222.796875)"/>
<path d="M0 0 C0.93005859 0.64775391 0.93005859 0.64775391 1.87890625 1.30859375 C2.57113281 1.77136719 3.26335938 2.23414062 3.9765625 2.7109375 C11.53394124 8.4884476 15.60530145 17.00431356 16.87890625 26.30859375 C16.96614281 28.34088759 17.00616405 30.37556893 17.0075407 32.40973377 C17.01237737 34.22198498 17.01237737 34.22198498 17.01731175 36.07084733 C17.01498885 38.04898889 17.01498885 38.04898889 17.01261902 40.0670929 C17.01448798 41.48891373 17.01678903 42.91073406 17.01948434 44.33255357 C17.02559816 48.23517079 17.02546924 52.13776659 17.02428997 56.04038751 C17.02408585 60.25113084 17.02960572 64.4618673 17.03434753 68.67260742 C17.04265233 76.9205546 17.0454023 85.16849464 17.04595991 93.41644565 C17.04643515 100.12103242 17.04849028 106.82561684 17.05166054 113.53020287 C17.0604666 132.5406115 17.06507998 151.5510145 17.06433006 170.56142519 C17.06429011 171.58618173 17.06425015 172.61093827 17.06420898 173.66674805 C17.0641681 174.69275634 17.06412722 175.71876463 17.0640851 176.77586409 C17.06367863 193.40455159 17.07324851 210.03321645 17.08734735 226.6618974 C17.10171105 243.73774981 17.10861754 260.81359117 17.10775357 277.88944978 C17.10742161 287.47558339 17.11016868 297.06169326 17.12093163 306.64782143 C17.13003652 314.80947099 17.13221195 322.97108606 17.1254222 331.13273851 C17.12215697 335.29584212 17.12210046 339.45887954 17.13077545 343.62197685 C17.13864117 347.43597055 17.1372083 351.24984556 17.12849132 355.06383636 C17.1262316 357.0909311 17.13378442 359.11802953 17.14173096 361.14510995 C17.09980624 372.23063678 15.84977564 381.33545336 8.87890625 390.30859375 C1.36479955 397.59044624 -6.28699936 400.80426624 -16.70703125 401.3671875 C-25.82189249 401.21075395 -33.59631761 398.78957945 -40.12109375 392.30859375 C-47.33557625 384.2231145 -50.24237951 376.06601093 -50.2497282 365.20745373 C-50.25295265 363.99928625 -50.2561771 362.79111878 -50.25949925 361.54634017 C-50.25795065 360.22757913 -50.25640205 358.9088181 -50.25480652 357.5500946 C-50.25667548 356.12827377 -50.25897653 354.70645344 -50.26167184 353.28463393 C-50.26778566 349.38201671 -50.26765674 345.47942091 -50.26647747 341.57679999 C-50.26627335 337.36605666 -50.27179322 333.1553202 -50.27653503 328.94458008 C-50.28483983 320.6966329 -50.2875898 312.44869286 -50.28814741 304.20074185 C-50.28862265 297.49615508 -50.29067778 290.79157066 -50.29384804 284.08698463 C-50.3026541 265.076576 -50.30726748 246.066173 -50.30651756 227.05576231 C-50.30647761 226.03100577 -50.30643765 225.00624923 -50.30639648 223.95043945 C-50.3063556 222.92443116 -50.30631472 221.89842287 -50.3062726 220.84132341 C-50.30586613 204.21263591 -50.31543601 187.58397105 -50.32953485 170.9552901 C-50.34389855 153.87943769 -50.35080504 136.80359633 -50.34994107 119.72773772 C-50.34960911 110.14160411 -50.35235618 100.55549424 -50.36311913 90.96936607 C-50.37222402 82.80771651 -50.37439945 74.64610144 -50.3676097 66.48444899 C-50.36434447 62.32134538 -50.36428796 58.15830796 -50.37296295 53.99521065 C-50.38082867 50.18121695 -50.3793958 46.36734194 -50.37067882 42.55335114 C-50.3684191 40.5262564 -50.37597192 38.49915797 -50.38391846 36.47207755 C-50.33882663 24.54911839 -48.77381021 15.70508869 -40.74609375 6.62109375 C-30.05813562 -2.79448841 -13.35175633 -7.551189 0 0 Z " fill="#000000" transform="translate(3330.12109375,119.69140625)"/>
<path d="M0 0 C0.93392578 -0.020625 1.86785156 -0.04125 2.83007812 -0.0625 C14.34584937 -0.12643211 24.64832852 3.31312063 33.265625 11.13671875 C40.20936287 18.56185021 41.66515257 25.22438571 41.53491211 35.24829102 C41.1961972 44.82509185 39.23632226 51.31678583 32.48046875 58.26953125 C25.25864847 64.50711708 17.62739243 66.47067281 8.1875 66.25 C1.30804945 65.62113056 -4.90188145 63.68479689 -11.3046875 61.15234375 C-23.7040311 56.69089769 -36.84805232 59.0744203 -48.49609375 64.5 C-64.23088301 73.1406331 -73.48755092 88.566162 -78.8125 105.25 C-81.42375349 114.95072614 -82.24821577 124.14209372 -82.21313477 134.15893555 C-82.21889554 135.59141608 -82.22598568 137.02389178 -82.23428345 138.45635986 C-82.24925256 141.51022019 -82.25518343 144.56390734 -82.25375557 147.61780357 C-82.25170045 152.4569535 -82.27142917 157.29587475 -82.29393005 162.13496399 C-82.334686 171.53135562 -82.35345965 180.92772829 -82.37010193 190.32418823 C-82.3925386 202.29502829 -82.42620307 214.2658143 -82.47730106 226.23656684 C-82.49709541 231.03718742 -82.50679402 235.8376863 -82.50825322 240.63834608 C-82.5110221 243.63256573 -82.52189159 246.62671905 -82.53476334 249.62091064 C-82.54101545 251.64995887 -82.53746873 253.67903008 -82.53352356 255.70808411 C-82.60414029 268.44732165 -83.64258741 279.27390106 -92.4453125 289.06640625 C-100.26056632 296.3182348 -109.30150504 298.54470079 -119.8125 298.25 C-127.85209516 297.23529382 -133.92021453 294.82521181 -139.8125 289.25 C-140.36679688 288.74726563 -140.92109375 288.24453125 -141.4921875 287.7265625 C-152.06964156 276.93861184 -150.37894505 261.19109038 -150.31420898 247.29052734 C-150.31799658 244.9700335 -150.32350024 242.64954192 -150.33058167 240.32905579 C-150.34449432 234.05440472 -150.33339644 227.78002915 -150.31687045 221.50539351 C-150.30297765 214.92641474 -150.30948472 208.34745129 -150.31300354 201.76846313 C-150.31643077 190.72450509 -150.30234902 179.68065 -150.27905273 168.63671875 C-150.25512482 157.2919511 -150.24805443 145.94732742 -150.25854492 134.60253906 C-150.27119195 120.90120695 -150.26864667 107.19997581 -150.25288582 93.49864578 C-150.24713761 88.2763984 -150.24719952 83.05419921 -150.25195122 77.83195114 C-150.25673348 71.68078813 -150.24656736 65.52982363 -150.22499657 59.37869835 C-150.21944607 57.12531516 -150.21894738 54.87191284 -150.22394943 52.61852837 C-150.22993404 49.53521149 -150.21733615 46.4524951 -150.20018005 43.36923218 C-150.2061901 42.48439128 -150.21220014 41.59955039 -150.21839231 40.68789613 C-150.10747023 29.67348147 -146.84130401 21.36195993 -139.11328125 13.52734375 C-131.89005196 6.92092955 -124.07225497 4.94826696 -114.42578125 5.10546875 C-104.62704646 5.64740177 -97.25581162 9.31982836 -90.5 16.5 C-84.81093024 23.68619338 -83.09511443 32.37295799 -81.8125 41.25 C-81.43480469 40.72792969 -81.05710937 40.20585937 -80.66796875 39.66796875 C-63.90596195 17.25320087 -41.71675577 5.6237361 -14.41796875 0.62890625 C-9.60407767 0.12300437 -4.83762928 0.02638107 0 0 Z " fill="#000000" transform="translate(3891.8125,222.75)"/>
<path d="M0 0 C6.15636032 4.99095878 10.73019973 11.71500276 12.75 19.375 C13.84093995 30.79181346 12.40754977 40.47134388 5.2771759 49.63381958 C3.68498613 51.44912432 2.0085914 52.94788542 0.1628418 54.50341797 C-4.65064646 58.66250037 -9.12318841 63.12224974 -13.60546875 67.6328125 C-14.4701326 68.4988913 -15.33479645 69.36497009 -16.22566223 70.2572937 C-18.96531833 73.0025039 -21.70146631 75.75117997 -24.4375 78.5 C-26.28557445 80.35309683 -28.13387961 82.2059636 -29.98242188 84.05859375 C-33.36886081 87.45316925 -36.75399786 90.84903072 -40.13745117 94.24658203 C-48.53389739 102.67679996 -48.53389739 102.67679996 -51.75 105.8125 C-54.32363115 108.3730505 -54.32363115 108.3730505 -56.6875 111.375 C-59.25 114.375 -59.25 114.375 -62.1875 116.8125 C-65.20695559 119.33898325 -67.5190823 121.95080538 -69.953125 125.01953125 C-70.38109375 125.46683594 -70.8090625 125.91414062 -71.25 126.375 C-71.91 126.375 -72.57 126.375 -73.25 126.375 C-73.25 127.035 -73.25 127.695 -73.25 128.375 C-75.625 131 -75.625 131 -78.25 133.375 C-78.91 133.375 -79.57 133.375 -80.25 133.375 C-80.25 134.035 -80.25 134.695 -80.25 135.375 C-82.625 138 -82.625 138 -85.25 140.375 C-85.91 140.375 -86.57 140.375 -87.25 140.375 C-87.25 141.035 -87.25 141.695 -87.25 142.375 C-89.625 145 -89.625 145 -92.25 147.375 C-92.91 147.375 -93.57 147.375 -94.25 147.375 C-94.25 148.035 -94.25 148.695 -94.25 149.375 C-96.625 152 -96.625 152 -99.25 154.375 C-99.91 154.375 -100.57 154.375 -101.25 154.375 C-101.25 155.035 -101.25 155.695 -101.25 156.375 C-103.625 159 -103.625 159 -106.25 161.375 C-106.91 161.375 -107.57 161.375 -108.25 161.375 C-108.25 162.035 -108.25 162.695 -108.25 163.375 C-110.625 166 -110.625 166 -113.25 168.375 C-113.91 168.375 -114.57 168.375 -115.25 168.375 C-115.25 169.035 -115.25 169.695 -115.25 170.375 C-116.68419504 171.6090748 -118.12445743 172.83715372 -119.6015625 174.01953125 C-121.98401634 175.9785632 -124.09814293 178.16796711 -126.25 180.375 C-127.91666667 182.04166667 -129.58333333 183.70833333 -131.25 185.375 C-132.075 186.220625 -132.9 187.06625 -133.75 187.9375 C-141.25252852 195.2524653 -148.16957373 198.57575562 -158.75 198.875 C-169.10925685 198.5415028 -175.85981387 195.58667409 -183.34375 188.4453125 C-189.7587214 181.47823291 -192.84025489 172.3364192 -192.546875 162.93359375 C-191.86492875 157.05629385 -189.99241291 151.59750807 -187.25 146.375 C-186.59 146.375 -185.93 146.375 -185.25 146.375 C-184.59 144.725 -183.93 143.075 -183.25 141.375 C-182.59 141.375 -181.93 141.375 -181.25 141.375 C-180.92 140.385 -180.59 139.395 -180.25 138.375 C-179.59 138.375 -178.93 138.375 -178.25 138.375 C-178.25 137.715 -178.25 137.055 -178.25 136.375 C-177.59 136.375 -176.93 136.375 -176.25 136.375 C-176.25 135.715 -176.25 135.055 -176.25 134.375 C-174.78529287 133.14331446 -173.31639122 131.91603997 -171.8203125 130.72265625 C-170.08099856 129.31725147 -170.08099856 129.31725147 -168.375 127 C-165.91832045 123.9652782 -163.15987184 121.60154289 -160.203125 119.06640625 C-156.74753444 116.07386482 -153.69419957 112.92170717 -150.8125 109.375 C-148.18248768 106.29596119 -145.3874966 103.92421599 -142.25 101.375 C-140.56288577 99.7290349 -138.8954378 98.06262851 -137.25 96.375 C-135.950625 95.1065625 -135.950625 95.1065625 -134.625 93.8125 C-132.25138243 91.49145367 -132.25138243 91.49145367 -130.5625 89.0625 C-130.129375 88.505625 -129.69625 87.94875 -129.25 87.375 C-128.59 87.375 -127.93 87.375 -127.25 87.375 C-127.25 86.715 -127.25 86.055 -127.25 85.375 C-126.59 85.375 -125.93 85.375 -125.25 85.375 C-125.25 84.715 -125.25 84.055 -125.25 83.375 C-123.875 81.75 -123.875 81.75 -122.25 80.375 C-121.59 80.375 -120.93 80.375 -120.25 80.375 C-120.25 79.715 -120.25 79.055 -120.25 78.375 C-119.59 78.375 -118.93 78.375 -118.25 78.375 C-118.25 77.715 -118.25 77.055 -118.25 76.375 C-116.875 74.75 -116.875 74.75 -115.25 73.375 C-114.59 73.375 -113.93 73.375 -113.25 73.375 C-113.25 72.715 -113.25 72.055 -113.25 71.375 C-112.59 71.375 -111.93 71.375 -111.25 71.375 C-111.25 70.715 -111.25 70.055 -111.25 69.375 C-109.875 67.75 -109.875 67.75 -108.25 66.375 C-107.59 66.375 -106.93 66.375 -106.25 66.375 C-106.25 65.715 -106.25 65.055 -106.25 64.375 C-105.59 64.375 -104.93 64.375 -104.25 64.375 C-104.25 63.715 -104.25 63.055 -104.25 62.375 C-102.875 60.75 -102.875 60.75 -101.25 59.375 C-100.59 59.375 -99.93 59.375 -99.25 59.375 C-99.25 58.715 -99.25 58.055 -99.25 57.375 C-97.875 55.75 -97.875 55.75 -96.25 54.375 C-95.59 54.375 -94.93 54.375 -94.25 54.375 C-94.25 53.715 -94.25 53.055 -94.25 52.375 C-93.59 52.375 -92.93 52.375 -92.25 52.375 C-92.25 51.715 -92.25 51.055 -92.25 50.375 C-90.875 48.75 -90.875 48.75 -89.25 47.375 C-88.59 47.375 -87.93 47.375 -87.25 47.375 C-87.25 46.715 -87.25 46.055 -87.25 45.375 C-86.59 45.375 -85.93 45.375 -85.25 45.375 C-85.25 44.715 -85.25 44.055 -85.25 43.375 C-83.875 41.75 -83.875 41.75 -82.25 40.375 C-81.59 40.375 -80.93 40.375 -80.25 40.375 C-80.25 39.715 -80.25 39.055 -80.25 38.375 C-79.59 38.375 -78.93 38.375 -78.25 38.375 C-78.25 37.715 -78.25 37.055 -78.25 36.375 C-76.875 34.75 -76.875 34.75 -75.25 33.375 C-74.59 33.375 -73.93 33.375 -73.25 33.375 C-73.25 32.715 -73.25 32.055 -73.25 31.375 C-72.59 31.375 -71.93 31.375 -71.25 31.375 C-70.92 30.385 -70.59 29.395 -70.25 28.375 C-69.59 28.375 -68.93 28.375 -68.25 28.375 C-68.25 27.715 -68.25 27.055 -68.25 26.375 C-67.59 26.375 -66.93 26.375 -66.25 26.375 C-66.25 25.715 -66.25 25.055 -66.25 24.375 C-65.59 24.375 -64.93 24.375 -64.25 24.375 C-63.92 23.385 -63.59 22.395 -63.25 21.375 C-62.59 21.375 -61.93 21.375 -61.25 21.375 C-61.25 20.715 -61.25 20.055 -61.25 19.375 C-60.59 19.375 -59.93 19.375 -59.25 19.375 C-59.25 18.715 -59.25 18.055 -59.25 17.375 C-58.59 17.375 -57.93 17.375 -57.25 17.375 C-56.92 16.385 -56.59 15.395 -56.25 14.375 C-54.3125 12.1875 -54.3125 12.1875 -52.25 10.375 C-51.59 10.375 -50.93 10.375 -50.25 10.375 C-50.25 9.715 -50.25 9.055 -50.25 8.375 C-47.875 5.75 -47.875 5.75 -45.25 3.375 C-44.59 3.375 -43.93 3.375 -43.25 3.375 C-43.25 2.715 -43.25 2.055 -43.25 1.375 C-29.81294557 -8.75786072 -14.09834838 -9.58034484 0 0 Z " fill="#000000" transform="translate(349.25,159.625)"/>
<path d="M0 0 C5.10444547 3.71155186 8.64140604 7.78609709 11.41015625 13.45703125 C11.77367187 14.17246094 12.1371875 14.88789063 12.51171875 15.625 C15.15818297 23.96711547 14.96449402 35.63312862 11.03515625 43.45703125 C10.20393848 44.81808959 9.33446632 46.15739527 8.41015625 47.45703125 C7.75015625 48.44703125 7.09015625 49.43703125 6.41015625 50.45703125 C5.75015625 50.45703125 5.09015625 50.45703125 4.41015625 50.45703125 C4.14203125 51.05515625 3.87390625 51.65328125 3.59765625 52.26953125 C2.41098219 54.45550979 1.31416512 55.87035719 -0.58984375 57.45703125 C-1.24984375 57.45703125 -1.90984375 57.45703125 -2.58984375 57.45703125 C-2.85796875 58.09640625 -3.12609375 58.73578125 -3.40234375 59.39453125 C-4.58984375 61.45703125 -4.58984375 61.45703125 -7.58984375 62.45703125 C-7.58984375 63.11703125 -7.58984375 63.77703125 -7.58984375 64.45703125 C-8.24984375 64.45703125 -8.90984375 64.45703125 -9.58984375 64.45703125 C-9.85796875 65.09640625 -10.12609375 65.73578125 -10.40234375 66.39453125 C-11.58984375 68.45703125 -11.58984375 68.45703125 -14.58984375 69.45703125 C-15.29135527 70.77236535 -15.955103 72.10820717 -16.58984375 73.45703125 C-18.08984375 75.20703125 -18.08984375 75.20703125 -19.58984375 76.45703125 C-20.24984375 76.45703125 -20.90984375 76.45703125 -21.58984375 76.45703125 C-21.85796875 77.09640625 -22.12609375 77.73578125 -22.40234375 78.39453125 C-23.58984375 80.45703125 -23.58984375 80.45703125 -26.58984375 81.45703125 C-26.58984375 82.11703125 -26.58984375 82.77703125 -26.58984375 83.45703125 C-27.24984375 83.45703125 -27.90984375 83.45703125 -28.58984375 83.45703125 C-28.85796875 84.09640625 -29.12609375 84.73578125 -29.40234375 85.39453125 C-30.58984375 87.45703125 -30.58984375 87.45703125 -33.58984375 88.45703125 C-33.58984375 89.11703125 -33.58984375 89.77703125 -33.58984375 90.45703125 C-34.24984375 90.45703125 -34.90984375 90.45703125 -35.58984375 90.45703125 C-35.85796875 91.09640625 -36.12609375 91.73578125 -36.40234375 92.39453125 C-37.58984375 94.45703125 -37.58984375 94.45703125 -40.58984375 95.45703125 C-40.58984375 96.11703125 -40.58984375 96.77703125 -40.58984375 97.45703125 C-41.24984375 97.45703125 -41.90984375 97.45703125 -42.58984375 97.45703125 C-42.85796875 98.09640625 -43.12609375 98.73578125 -43.40234375 99.39453125 C-44.58984375 101.45703125 -44.58984375 101.45703125 -47.58984375 102.45703125 C-47.91984375 103.11703125 -48.24984375 103.77703125 -48.58984375 104.45703125 C-48.91984375 105.11703125 -49.24984375 105.77703125 -49.58984375 106.45703125 C-50.57984375 106.78703125 -51.56984375 107.11703125 -52.58984375 107.45703125 C-52.58984375 108.11703125 -52.58984375 108.77703125 -52.58984375 109.45703125 C-53.24984375 109.45703125 -53.90984375 109.45703125 -54.58984375 109.45703125 C-54.85796875 110.09640625 -55.12609375 110.73578125 -55.40234375 111.39453125 C-56.58984375 113.45703125 -56.58984375 113.45703125 -59.58984375 114.45703125 C-59.58984375 115.11703125 -59.58984375 115.77703125 -59.58984375 116.45703125 C-60.24984375 116.45703125 -60.90984375 116.45703125 -61.58984375 116.45703125 C-61.85796875 117.09640625 -62.12609375 117.73578125 -62.40234375 118.39453125 C-63.58984375 120.45703125 -63.58984375 120.45703125 -66.58984375 121.45703125 C-66.58984375 122.11703125 -66.58984375 122.77703125 -66.58984375 123.45703125 C-67.24984375 123.45703125 -67.90984375 123.45703125 -68.58984375 123.45703125 C-68.85796875 124.09640625 -69.12609375 124.73578125 -69.40234375 125.39453125 C-70.58984375 127.45703125 -70.58984375 127.45703125 -73.58984375 128.45703125 C-74.29135527 129.77236535 -74.955103 131.10820717 -75.58984375 132.45703125 C-77.08984375 134.20703125 -77.08984375 134.20703125 -78.58984375 135.45703125 C-79.24984375 135.45703125 -79.90984375 135.45703125 -80.58984375 135.45703125 C-80.85796875 136.05515625 -81.12609375 136.65328125 -81.40234375 137.26953125 C-82.58901781 139.45550979 -83.68583488 140.87035719 -85.58984375 142.45703125 C-86.24984375 142.45703125 -86.90984375 142.45703125 -87.58984375 142.45703125 C-87.85796875 143.05515625 -88.12609375 143.65328125 -88.40234375 144.26953125 C-89.58901781 146.45550979 -90.68583488 147.87035719 -92.58984375 149.45703125 C-93.24984375 149.45703125 -93.90984375 149.45703125 -94.58984375 149.45703125 C-94.85796875 150.05515625 -95.12609375 150.65328125 -95.40234375 151.26953125 C-96.58901781 153.45550979 -97.68583488 154.87035719 -99.58984375 156.45703125 C-100.24984375 156.45703125 -100.90984375 156.45703125 -101.58984375 156.45703125 C-101.86065262 157.05250259 -102.13146149 157.64797394 -102.41047668 158.26148987 C-103.57630523 160.43182758 -104.7292491 161.8497989 -106.4597168 163.58569336 C-107.03759445 164.16987534 -107.61547211 164.75405731 -108.21086121 165.35594177 C-108.83479263 165.97582474 -109.45872406 166.5957077 -110.1015625 167.234375 C-110.74801224 167.88273819 -111.39446198 168.53110138 -112.0605011 169.19911194 C-113.4290697 170.56904018 -114.80016186 171.93645137 -116.17358398 173.30151367 C-118.25930642 175.37658603 -120.33422221 177.46202812 -122.40820312 179.54882812 C-123.7428493 180.88215165 -125.0781163 182.21485407 -126.4140625 183.546875 C-127.02787277 184.16473373 -127.64168304 184.78259247 -128.27409363 185.41917419 C-136.38988302 193.44877553 -144.46458737 198.35624648 -156.15234375 198.83203125 C-166.66135192 198.41769759 -174.44882141 193.9840548 -181.58984375 186.45703125 C-182.39421875 185.71453125 -182.39421875 185.71453125 -183.21484375 184.95703125 C-189.02271872 178.62116764 -190.05431953 170.2410506 -189.8359375 161.9296875 C-188.37854562 147.28636908 -177.05684428 137.47532756 -167.24755859 127.67895508 C-165.88625451 126.30866217 -164.52556332 124.93776017 -163.16543579 123.56629944 C-159.48642738 119.86090491 -155.79784935 116.16518443 -152.10658598 112.47200227 C-149.79682647 110.16010406 -147.48921895 107.84608007 -145.1823616 105.53128624 C-137.12312621 97.44433749 -129.05621961 89.36513401 -120.98193359 81.29321289 C-113.47352342 73.78660503 -105.98200951 66.26342426 -98.49822462 58.73227292 C-92.05606059 52.25080251 -85.60230157 45.78103247 -79.1394974 39.32014292 C-75.28685075 35.46825872 -71.43893703 31.61192939 -67.60264206 27.74375343 C-63.99287878 24.1048105 -60.36881007 20.48073336 -56.73357773 16.867239 C-55.4078464 15.54462807 -54.08714189 14.21695457 -52.77211761 12.88369751 C-37.76576551 -2.317029 -20.5062281 -12.21713439 0 0 Z " fill="#000000" transform="translate(528.58984375,297.54296875)"/>
</svg>
